<svg width="12" height="16" viewBox="0 0 12 16" fill="none" xmlns="http://www.w3.org/2000/svg">
<path d="M1.61109 13.0963C1.3963 13.3111 1.3963 13.6593 1.61109 13.8741C1.82588 14.0889 2.17412 14.0889 2.38891 13.8741L1.61109 13.0963ZM10.3282 5.70705C10.3282 5.4033 10.0819 5.15705 9.77817 5.15705L4.82817 5.15705C4.52442 5.15705 4.27817 5.4033 4.27817 5.70705C4.27817 6.01081 4.52442 6.25705 4.82817 6.25705L9.22817 6.25705L9.22817 10.6571C9.22817 10.9608 9.47442 11.2071 9.77817 11.2071C10.0819 11.2071 10.3282 10.9608 10.3282 10.6571L10.3282 5.70705ZM2 13.4852L2.38891 13.8741L10.1671 6.09596L9.77817 5.70706L9.38927 5.31815L1.61109 13.0963L2 13.4852Z" fill="#EC5F2C"/>
</svg>
