<svg width="192" height="200" viewBox="0 0 192 200" fill="none" xmlns="http://www.w3.org/2000/svg">
<path fill-rule="evenodd" clip-rule="evenodd" d="M102.957 192.639C107.594 197.378 113.712 200 120.204 200H192V52.1679C192 45.3364 189.328 38.6659 184.646 33.8815L151.542 0H121.286L166.36 46.1415C169.165 49.0167 170.777 53.019 170.777 57.1363V177.918H124.842C120.933 177.918 117.267 176.354 114.484 173.502L74.4458 132.536C71.6411 129.661 70.029 125.658 70.029 121.541V110.937H121.949V149.143H143.15V73.4905C143.15 66.659 140.478 59.9885 135.796 55.2041L89.0435 7.36055C84.4058 2.6222 78.2885 0 71.7957 0H0V147.832C0 154.664 2.67219 161.334 7.35404 166.118L40.4582 200H70.7136L25.6397 153.859C22.8351 150.983 21.2229 146.981 21.2229 142.864V22.0817H67.1359C71.0449 22.0817 74.7108 23.6458 77.4934 26.498L117.532 67.4641C120.337 70.3393 121.949 74.3416 121.949 78.4589V88.8327H70.029V50.8568H48.8282V126.509C48.8282 133.341 51.5003 140.012 56.1822 144.796L102.934 192.662L102.957 192.639Z" fill="#FF6C32"/>
</svg>
