<svg width="48" height="48" viewBox="0 0 48 48" fill="none" xmlns="http://www.w3.org/2000/svg">
<circle cx="24" cy="24" r="22" fill="#EC5F2C"/>
<path fill-rule="evenodd" clip-rule="evenodd" d="M24.7971 34.1903C25.3285 34.7116 26.0294 35 26.7734 35H35V18.7385C35 17.987 34.6938 17.2532 34.1573 16.727L30.3642 13H26.8974L32.0621 18.0756C32.3835 18.3918 32.5682 18.8321 32.5682 19.285V32.571H27.3048C26.8569 32.571 26.4369 32.399 26.118 32.0852L21.5302 27.579C21.2089 27.2627 21.0242 26.8224 21.0242 26.3695V25.2031H26.9733V29.4058H29.4026V21.084C29.4026 20.3325 29.0964 19.5987 28.5599 19.0725L23.2029 13.8097C22.6715 13.2884 21.9706 13 21.2266 13H13V29.2615C13 30.013 13.3062 30.7468 13.8427 31.273L17.6358 35H21.1026L15.9379 29.9244C15.6165 29.6082 15.4318 29.1679 15.4318 28.715V15.429H20.6927C21.1406 15.429 21.5606 15.601 21.8795 15.9148L26.4672 20.421C26.7886 20.7373 26.9733 21.1776 26.9733 21.6305V22.7716H21.0242V18.5942H18.5949V26.916C18.5949 27.6675 18.9011 28.4013 19.4375 28.9275L24.7946 34.1929L24.7971 34.1903Z" fill="white"/>
</svg>
