<svg width="389" height="291" viewBox="0 0 389 291" fill="none" xmlns="http://www.w3.org/2000/svg">
  <g clip-path="url(#clip0_4021_3390)">
    <g style="mix-blend-mode:plus-darker" opacity="1">
      <path d="M266.494 287.999C262.138 287.999 258.084 286.539 254.988 283.953L254.691 283.699L217.343 250.921L217.342 250.92C214.21 248.175 212.489 244.41 212.489 240.648L212.489 191.815L223.427 191.815L223.427 217.99L270.905 217.99L270.905 207.726C270.905 203.984 269.201 200.439 266.357 197.94L266.355 197.938L234.37 169.872L234.37 169.871C231.568 167.408 227.924 166.099 224.115 166.099L184.418 166.099L184.418 251.853C184.418 255.595 186.123 259.139 188.966 261.639L188.967 261.64L218.991 287.999L203.915 287.999L178.316 265.53L178.315 265.529C175.183 262.784 173.463 259.018 173.463 255.256L173.463 156.97L227.82 156.97C232.317 156.97 236.491 158.526 239.622 161.27L241.619 163.019L241.636 163.005L276.988 194.047L276.99 194.049L277.28 194.309C280.229 197.029 281.843 200.677 281.843 204.321L281.843 253.154L270.905 253.154L270.905 227.136L223.427 227.136L223.427 237.243C223.427 240.985 225.131 244.53 227.975 247.029L227.977 247.031L259.962 275.098L259.961 275.098C262.763 277.561 266.408 278.87 270.217 278.87L309.896 278.87L309.896 193.116C309.896 189.374 308.192 185.83 305.349 183.33L305.348 183.329L275.323 156.97L290.399 156.97L315.997 179.439L315.999 179.44L316.289 179.7C319.237 182.42 320.851 186.068 320.852 189.712L320.852 287.999L266.494 287.999Z" fill="#FF6C32" />
      <path d="M266.494 287.999C262.138 287.999 258.084 286.539 254.988 283.953L254.691 283.699L217.343 250.921L217.342 250.92C214.21 248.175 212.489 244.41 212.489 240.648L212.489 191.815L223.427 191.815L223.427 217.99L270.905 217.99L270.905 207.726C270.905 203.984 269.201 200.439 266.357 197.94L266.355 197.938L234.37 169.872L234.37 169.871C231.568 167.408 227.924 166.099 224.115 166.099L184.418 166.099L184.418 251.853C184.418 255.595 186.123 259.139 188.966 261.639L188.967 261.64L218.991 287.999L203.915 287.999L178.316 265.53L178.315 265.529C175.183 262.784 173.463 259.018 173.463 255.256L173.463 156.97L227.82 156.97C232.317 156.97 236.491 158.526 239.622 161.27L241.619 163.019L241.636 163.005L276.988 194.047L276.99 194.049L277.28 194.309C280.229 197.029 281.843 200.677 281.843 204.321L281.843 253.154L270.905 253.154L270.905 227.136L223.427 227.136L223.427 237.243C223.427 240.985 225.131 244.53 227.975 247.029L227.977 247.031L259.962 275.098L259.961 275.098C262.763 277.561 266.408 278.87 270.217 278.87L309.896 278.87L309.896 193.116C309.896 189.374 308.192 185.83 305.349 183.33L305.348 183.329L275.323 156.97L290.399 156.97L315.997 179.439L315.999 179.44L316.289 179.7C319.237 182.42 320.851 186.068 320.852 189.712L320.852 287.999L266.494 287.999Z" stroke="#FF6C32" stroke-width="6" />
    </g>
    <g style="mix-blend-mode:plus-darker" opacity="1">
      <path d="M160.551 136.529C155.479 136.529 150.711 134.774 147.102 131.611L147.102 131.61L109.751 98.8302C106.112 95.6411 104.046 91.2053 104.046 86.6778L104.046 35.3448L119.983 35.3448L119.983 61.5206L162.462 61.5206L162.462 53.756C162.462 50.7816 161.105 47.906 158.764 45.8478L158.764 45.8468L126.776 17.7794C124.457 15.7405 121.409 14.629 118.172 14.629L80.9746 14.629L80.9746 97.8829C80.9747 100.671 82.1673 103.373 84.2451 105.396L84.6729 105.791L119.685 136.529L97.0293 136.529L70.7246 113.44L70.7236 113.44C67.0848 110.25 65.0195 105.814 65.0195 101.286L65.0195 0.500109L121.877 0.500114C126.949 0.500115 131.718 2.25645 135.327 5.41906L135.659 5.71105L135.677 5.6964L172.694 38.1984L172.694 38.1993L173.031 38.5021C176.461 41.6659 178.399 45.9658 178.399 50.3517L178.399 101.685L162.462 101.685L162.462 75.6661L119.983 75.6661L119.983 83.2736C119.983 86.248 121.341 89.1235 123.682 91.1818L123.682 91.1827L155.669 119.25C157.988 121.289 161.036 122.401 164.273 122.401L201.453 122.401L201.453 39.1466C201.453 36.1723 200.096 33.2966 197.755 31.2384L162.743 0.500118L185.397 0.500119L211.703 23.59L212.04 23.8927C215.469 27.0565 217.408 31.3565 217.408 35.7423L217.408 136.529L160.551 136.529Z" fill="#FF6C32" />
      <path d="M160.551 136.529C155.479 136.529 150.711 134.774 147.102 131.611L147.102 131.61L109.751 98.8302C106.112 95.6411 104.046 91.2053 104.046 86.6778L104.046 35.3448L119.983 35.3448L119.983 61.5206L162.462 61.5206L162.462 53.756C162.462 50.7816 161.105 47.906 158.764 45.8478L158.764 45.8468L126.776 17.7794C124.457 15.7405 121.409 14.629 118.172 14.629L80.9746 14.629L80.9746 97.8829C80.9747 100.671 82.1673 103.373 84.2451 105.396L84.6729 105.791L119.685 136.529L97.0293 136.529L70.7246 113.44L70.7236 113.44C67.0848 110.25 65.0195 105.814 65.0195 101.286L65.0195 0.500109L121.877 0.500114C126.949 0.500115 131.718 2.25645 135.327 5.41906L135.659 5.71105L135.677 5.6964L172.694 38.1984L172.694 38.1993L173.031 38.5021C176.461 41.6659 178.399 45.9658 178.399 50.3517L178.399 101.685L162.462 101.685L162.462 75.6661L119.983 75.6661L119.983 83.2736C119.983 86.248 121.341 89.1235 123.682 91.1818L123.682 91.1827L155.669 119.25C157.988 121.289 161.036 122.401 164.273 122.401L201.453 122.401L201.453 39.1466C201.453 36.1723 200.096 33.2966 197.755 31.2384L162.743 0.500118L185.397 0.500119L211.703 23.59L212.04 23.8927C215.469 27.0565 217.408 31.3565 217.408 35.7423L217.408 136.529L160.551 136.529Z" stroke="#FF6C32" />
    </g>
    <g style="mix-blend-mode:plus-darker" opacity="1">
      <path d="M96.0313 271.059C91.6751 271.059 87.6209 269.599 84.5254 267.014L84.2285 266.76L46.8799 233.981L46.8789 233.98C43.7468 231.235 42.0264 227.47 42.0264 223.708L42.0264 174.875L52.9639 174.875L52.9639 201.051L100.442 201.051L100.442 190.786C100.442 187.044 98.7378 183.5 95.8945 181L95.8926 180.998L63.9072 152.932L63.9072 152.932C61.1052 150.469 57.461 149.159 53.6524 149.159L13.9551 149.159L13.9551 234.913C13.9552 238.655 15.6598 242.199 18.5029 244.699L18.5039 244.7L48.5283 271.059L33.4521 271.059L7.85352 248.591L7.85254 248.59C4.72035 245.845 3 242.078 3 238.316L3.00001 140.03L57.3574 140.03C61.854 140.03 66.0284 141.587 69.1592 144.33L71.1563 146.079L71.1729 146.065L106.525 177.107L106.527 177.109L106.817 177.369C109.766 180.089 111.38 183.737 111.38 187.382L111.38 236.215L100.442 236.215L100.442 210.196L52.9639 210.196L52.9639 220.304C52.9639 224.046 54.6685 227.59 57.5117 230.09L57.5137 230.092L89.499 258.158L89.498 258.158C92.3001 260.621 95.9451 261.931 99.7539 261.931L139.434 261.931L139.434 176.177C139.434 172.435 137.729 168.89 134.886 166.391L134.885 166.39L104.86 140.03L119.937 140.03L145.534 162.499L145.536 162.5L145.826 162.761C148.774 165.481 150.389 169.128 150.389 172.772L150.389 271.059L96.0313 271.059Z" fill="#FF6C32" />
      <path d="M96.0313 271.059C91.6751 271.059 87.6209 269.599 84.5254 267.014L84.2285 266.76L46.8799 233.981L46.8789 233.98C43.7468 231.235 42.0264 227.47 42.0264 223.708L42.0264 174.875L52.9639 174.875L52.9639 201.051L100.442 201.051L100.442 190.786C100.442 187.044 98.7378 183.5 95.8945 181L95.8926 180.998L63.9072 152.932L63.9072 152.932C61.1052 150.469 57.461 149.159 53.6524 149.159L13.9551 149.159L13.9551 234.913C13.9552 238.655 15.6598 242.199 18.5029 244.699L18.5039 244.7L48.5283 271.059L33.4521 271.059L7.85352 248.591L7.85254 248.59C4.72035 245.845 3 242.078 3 238.316L3.00001 140.03L57.3574 140.03C61.854 140.03 66.0284 141.587 69.1592 144.33L71.1563 146.079L71.1729 146.065L106.525 177.107L106.527 177.109L106.817 177.369C109.766 180.089 111.38 183.737 111.38 187.382L111.38 236.215L100.442 236.215L100.442 210.196L52.9639 210.196L52.9639 220.304C52.9639 224.046 54.6685 227.59 57.5117 230.09L57.5137 230.092L89.499 258.158L89.498 258.158C92.3001 260.621 95.9451 261.931 99.7539 261.931L139.434 261.931L139.434 176.177C139.434 172.435 137.729 168.89 134.886 166.391L134.885 166.39L104.86 140.03L119.937 140.03L145.534 162.499L145.536 162.5L145.826 162.761C148.774 165.481 150.389 169.128 150.389 172.772L150.389 271.059L96.0313 271.059Z" stroke="#FF6C32" stroke-width="6" />
    </g>
    <g style="mix-blend-mode:plus-darker" opacity="1">
      <path d="M331.068 153.469C325.997 153.469 321.228 151.713 317.619 148.551L317.619 148.55L280.269 115.77C276.63 112.581 274.564 108.145 274.563 103.618L274.563 52.2848L290.501 52.2848L290.501 78.4606L332.979 78.4606L332.979 70.6959C332.98 67.7216 331.622 64.8459 329.281 62.7877L329.281 62.7867L297.294 34.7194C294.974 32.6804 291.927 31.569 288.689 31.569L251.492 31.569L251.492 114.823C251.492 117.611 252.685 120.313 254.763 122.336L255.19 122.731L290.202 153.469L267.547 153.469L241.242 130.38L241.241 130.38C237.602 127.19 235.537 122.754 235.537 118.226L235.537 17.4401L292.395 17.4401C297.467 17.4401 302.235 19.1964 305.845 22.359L306.177 22.651L306.194 22.6363L343.212 55.1383L343.212 55.1393L343.549 55.442C346.978 58.6059 348.917 62.9057 348.917 67.2916L348.917 118.625L332.979 118.625L332.979 92.6061L290.501 92.6061L290.501 100.213C290.501 103.188 291.858 106.063 294.199 108.122L294.199 108.123L326.187 136.19C328.506 138.229 331.554 139.34 334.791 139.34L371.971 139.34L371.971 56.0865C371.971 53.1122 370.613 50.2365 368.272 48.1783L333.261 17.4401L355.915 17.4401L382.221 40.5299L382.558 40.8326C385.987 43.9964 387.926 48.2964 387.926 52.6823L387.926 153.469L331.068 153.469Z" fill="#FF6C32" />
      <path d="M331.068 153.469C325.997 153.469 321.228 151.713 317.619 148.551L317.619 148.55L280.269 115.77C276.63 112.581 274.564 108.145 274.563 103.618L274.563 52.2848L290.501 52.2848L290.501 78.4606L332.979 78.4606L332.979 70.6959C332.98 67.7216 331.622 64.8459 329.281 62.7877L329.281 62.7867L297.294 34.7194C294.974 32.6804 291.927 31.569 288.689 31.569L251.492 31.569L251.492 114.823C251.492 117.611 252.685 120.313 254.763 122.336L255.19 122.731L290.202 153.469L267.547 153.469L241.242 130.38L241.241 130.38C237.602 127.19 235.537 122.754 235.537 118.226L235.537 17.4401L292.395 17.4401C297.467 17.4401 302.235 19.1964 305.845 22.359L306.177 22.651L306.194 22.6363L343.212 55.1383L343.212 55.1393L343.549 55.442C346.978 58.6059 348.917 62.9057 348.917 67.2916L348.917 118.625L332.979 118.625L332.979 92.6061L290.501 92.6061L290.501 100.213C290.501 103.188 291.858 106.063 294.199 108.122L294.199 108.123L326.187 136.19C328.506 138.229 331.554 139.34 334.791 139.34L371.971 139.34L371.971 56.0865C371.971 53.1122 370.613 50.2365 368.272 48.1783L333.261 17.4401L355.915 17.4401L382.221 40.5299L382.558 40.8326C385.987 43.9964 387.926 48.2964 387.926 52.6823L387.926 153.469L331.068 153.469Z" stroke="#FF6C32" />
    </g>
  </g>
  <defs>
    <clipPath id="clip0_4021_3390">
      <rect width="388.426" height="290.999" fill="white" />
    </clipPath>
  </defs>
</svg>