<svg width="44" height="44" viewBox="0 0 44 44" fill="none" xmlns="http://www.w3.org/2000/svg">
<path d="M22 11.0001C24.0251 11.0001 25.6667 9.35846 25.6667 7.33341C25.6667 5.30837 24.0251 3.66675 22 3.66675C19.9749 3.66675 18.3333 5.30837 18.3333 7.33341C18.3333 9.35846 19.9749 11.0001 22 11.0001Z" stroke="#EC5F2C" stroke-width="1.6" stroke-linecap="round" stroke-linejoin="round"/>
<path d="M28.875 25.6667V22C28.875 20.1766 28.1506 18.4279 26.8614 17.1386C25.5721 15.8493 23.8234 15.125 22 15.125C20.1766 15.125 18.4279 15.8493 17.1386 17.1386C15.8493 18.4279 15.125 20.1766 15.125 22V25.6667H17.875L19.25 36.6667H24.75L26.125 25.6667H28.875Z" stroke="#EC5F2C" stroke-width="1.6" stroke-linecap="round" stroke-linejoin="round"/>
<path d="M9.16667 14.6666C11.1917 14.6666 12.8333 13.025 12.8333 10.9999C12.8333 8.97487 11.1917 7.33325 9.16667 7.33325C7.14162 7.33325 5.5 8.97487 5.5 10.9999C5.5 13.025 7.14162 14.6666 9.16667 14.6666Z" stroke="#EC5F2C" stroke-width="1.6" stroke-linecap="round" stroke-linejoin="round"/>
<path d="M7.2343 17.9529C6.1551 18.1149 5.1299 18.5312 4.24338 19.1676C3.35683 19.8039 2.63437 20.6419 2.13561 21.6125C1.63688 22.5833 1.37616 23.6585 1.375 24.7499V25.6666H4.125L5.5 34.8332H11L11.6893 30.2389" stroke="#EC5F2C" stroke-width="1.6" stroke-linecap="round" stroke-linejoin="round"/>
<path d="M34.8333 14.6666C36.8584 14.6666 38.5 13.025 38.5 10.9999C38.5 8.97487 36.8584 7.33325 34.8333 7.33325C32.8082 7.33325 31.1667 8.97487 31.1667 10.9999C31.1667 13.025 32.8082 14.6666 34.8333 14.6666Z" stroke="#EC5F2C" stroke-width="1.6" stroke-linecap="round" stroke-linejoin="round"/>
<path d="M36.7657 17.9529C37.845 18.1149 38.8701 18.5312 39.7567 19.1676C40.6432 19.8039 41.3657 20.6419 41.8644 21.6125C42.3632 22.5833 42.6239 23.6585 42.625 24.7499V25.6666H39.875L38.5 34.8332H33L32.3107 30.2389" stroke="#EC5F2C" stroke-width="1.6" stroke-linecap="round" stroke-linejoin="round"/>
</svg>
