<svg width="44" height="44" viewBox="0 0 44 44" fill="none" xmlns="http://www.w3.org/2000/svg">
<path d="M4 39H40" stroke="#EC5F2C" stroke-width="1.6" stroke-linecap="round" stroke-linejoin="round"/>
<path d="M18 39V15L7 17.3701V39" stroke="#EC5F2C" stroke-width="1.6" stroke-linecap="round" stroke-linejoin="round"/>
<path d="M37.0001 39V15.22L18.0001 7V39" stroke="#EC5F2C" stroke-width="1.6" stroke-linecap="round" stroke-linejoin="round"/>
<path d="M32.9833 39L33 29.2724C33 28.6698 32.7365 28.0917 32.2677 27.6655C31.7988 27.2394 31.163 27 30.5 27H25.5C24.837 27 24.201 27.2394 23.7322 27.6655C23.2633 28.0917 23 28.6698 23 29.2724V39" stroke="#EC5F2C" stroke-width="1.6" stroke-linecap="round" stroke-linejoin="round"/>
<path d="M4 18L18 15" stroke="#EC5F2C" stroke-width="1.6" stroke-linecap="round" stroke-linejoin="round"/>
<path d="M16 6L40 16" stroke="#EC5F2C" stroke-width="1.6" stroke-linecap="round" stroke-linejoin="round"/>
<path d="M37 15V7H33V12.7618" stroke="#EC5F2C" stroke-width="1.6" stroke-linecap="round" stroke-linejoin="round"/>
</svg>
