<?xml version="1.0" encoding="UTF-8"?><svg id="_Слой_1" xmlns="http://www.w3.org/2000/svg" viewBox="0 0 514.03 60.99"><defs><style>.cls-1{fill:#ec5f2c;fill-rule:evenodd;}.cls-2{fill:#00d074;}</style></defs><rect x="252.3" width="1.24" height="60.95"/><path d="M436.5,24.15v-5.85h1.24v2.32h2.51v-2.32h1.24v5.85h-1.24v-2.49h-2.51v2.49h-1.24Z"/><path d="M442.25,24.15l2.17-5.85h1.24l2.18,5.85h-1.32l-.45-1.19h-2.16l-.44,1.19h-1.22ZM444.29,21.92h1.4l-.7-2.03-.7,2.03Z"/><path d="M453.02,25.24v-1.09h-4.43v-5.85h1.24v4.81h2.34v-4.81h1.24v4.81h.72v2.12h-1.12Z"/><path d="M455.07,24.15v-5.85h1.24v3.88l2.55-3.88h1.2v5.85h-1.24v-3.88l-2.56,3.88h-1.19Z"/><path d="M463.91,24.25c-.37,0-.72-.06-1.04-.17-.33-.11-.62-.29-.88-.52s-.46-.54-.61-.92c-.15-.38-.22-.84-.22-1.37v-.17c0-.51.07-.95.22-1.32.15-.36.35-.66.61-.9.26-.23.55-.41.88-.52.33-.11.68-.17,1.04-.17s.72.06,1.04.17c.33.11.62.28.88.52.26.23.46.53.61.9.15.36.22.8.22,1.32v.17c0,.53-.07.99-.22,1.37-.15.38-.35.69-.61.92s-.55.41-.88.52c-.33.11-.68.17-1.04.17ZM463.91,23.2c.26,0,.49-.06.71-.18.22-.12.4-.32.53-.6.14-.28.2-.66.2-1.15v-.17c0-.46-.07-.82-.2-1.09-.14-.27-.31-.46-.53-.58s-.46-.18-.71-.18-.49.06-.71.18-.4.31-.54.58c-.14.27-.2.63-.2,1.09v.17c0,.48.07.87.2,1.15.14.28.32.48.54.6.22.12.46.18.71.18Z"/><path d="M467.75,24.15v-5.85h1.24v2.32h2.51v-2.32h1.24v5.85h-1.24v-2.49h-2.51v2.49h-1.24Z"/><path d="M473.51,24.15l2.17-5.85h1.24l2.18,5.85h-1.32l-.45-1.19h-2.16l-.44,1.19h-1.22ZM475.55,21.92h1.4l-.7-2.03-.7,2.03Z"/><path d="M479.89,24.25s-.1,0-.17,0c-.07,0-.12,0-.17-.02v-1.12s.06,0,.13,0c.11,0,.21-.02.3-.05.09-.04.16-.12.23-.24.06-.12.11-.3.15-.53.04-.23.07-.53.09-.91.02-.38.03-.84.03-1.41v-1.67h4.26v5.85h-1.25v-4.81h-1.82v.8c0,.71-.03,1.3-.08,1.79s-.12.88-.22,1.19-.22.54-.36.7c-.14.16-.31.27-.5.33-.19.06-.4.09-.62.09Z"/><path d="M486.07,24.15v-5.85h1.24v2.09h1c.8,0,1.38.17,1.76.51s.57.8.57,1.37-.19,1.02-.57,1.37c-.38.34-.97.51-1.76.51h-2.25ZM487.32,23.11h.88c.45,0,.76-.08.94-.23.18-.15.27-.36.27-.62s-.09-.47-.27-.62c-.18-.15-.49-.23-.94-.23h-.88v1.69Z"/><path d="M491.59,24.15v-5.85h1.24v2.32h2.51v-2.32h1.24v5.85h-1.24v-2.49h-2.51v2.49h-1.24Z"/><path d="M497.34,24.15l2.17-5.85h1.24l2.18,5.85h-1.32l-.45-1.19h-2.16l-.44,1.19h-1.22ZM499.39,21.92h1.4l-.7-2.03-.7,2.03Z"/><path d="M503.34,24.15l1.49-2.27c-.42-.13-.73-.35-.94-.64s-.31-.65-.31-1.05c0-.38.08-.71.25-.99.17-.28.41-.5.74-.66.33-.16.74-.23,1.22-.23h2.38v5.85h-1.25v-2.14h-.92l-1.3,2.14h-1.37ZM504.85,20.18c0,.28.09.49.26.63.17.14.49.21.95.21h.88v-1.69h-.88c-.46,0-.78.07-.95.21-.17.14-.26.35-.26.63Z"/><path d="M438.62,33.52c-.33,0-.65-.04-.94-.11-.29-.07-.54-.19-.76-.35-.22-.16-.39-.37-.53-.63-.13-.26-.21-.57-.24-.93h1.3c.04.31.17.55.38.71s.47.25.79.25c.16,0,.31-.03.45-.08.14-.05.28-.14.4-.26s.22-.28.3-.47.13-.44.16-.73h-2.02v-.97h2.01c-.03-.35-.11-.63-.23-.84-.12-.21-.27-.36-.46-.46-.18-.09-.39-.14-.61-.14-.3,0-.55.08-.76.23-.21.16-.34.4-.4.73h-1.3c.02-.35.1-.65.24-.9.14-.26.32-.46.54-.63s.48-.28.76-.36.59-.12.92-.12c.37,0,.72.06,1.04.17s.6.29.84.53c.24.24.42.54.56.9.13.36.2.8.2,1.3v.17c0,.53-.07.99-.2,1.37-.13.38-.32.69-.56.92s-.52.41-.84.52c-.32.11-.66.17-1.03.17Z"/><path d="M442.33,33.42v-5.85h1.24v2.32h2.51v-2.32h1.24v5.85h-1.24v-2.49h-2.51v2.49h-1.24Z"/><path d="M448.68,33.42v-5.85h4.08v1.04h-2.82v1.3h2.57v1h-2.57v1.47h2.82v1.04h-4.08Z"/><path d="M453.86,33.42v-5.85h2.25c.53,0,.97.08,1.31.24.34.16.6.38.77.67.17.29.25.62.25,1.01s-.08.73-.25,1.01c-.17.29-.42.51-.77.67-.35.16-.78.24-1.31.24h-1v2h-1.24ZM455.1,30.38h.88c.45,0,.76-.08.94-.23.18-.15.27-.37.27-.66s-.09-.5-.27-.66c-.18-.15-.49-.23-.94-.23h-.88v1.77Z"/><path d="M459.41,33.42v-5.85h3.83v1.04h-2.59v4.81h-1.24Z"/><path d="M464.09,33.42v-5.85h4.08v1.04h-2.82v1.3h2.57v1h-2.57v1.47h2.82v1.04h-4.08Z"/><path d="M470.72,33.42v-4.81h-1.88v-1.04h5v1.04h-1.88v4.81h-1.24Z"/><path d="M474.68,33.42v-5.85h1.24v3.88l2.55-3.88h1.2v5.85h-1.24v-3.88l-2.56,3.88h-1.19Z"/><path d="M484.11,33.42v-2.4c-.14.09-.34.18-.59.26-.25.08-.54.12-.86.12-.64,0-1.11-.16-1.42-.47-.31-.31-.46-.81-.46-1.48v-1.87h1.25v1.71c0,.38.08.65.23.81.15.16.4.25.73.25.26,0,.49-.03.67-.1.19-.07.34-.14.45-.22v-2.45h1.25v5.85h-1.25Z"/><path d="M486.71,33.42v-5.85h4.08v1.04h-2.82v1.3h2.57v1h-2.57v1.47h2.82v1.04h-4.08Z"/><path d="M494.22,33.52c-.51,0-.96-.1-1.36-.3-.4-.2-.71-.52-.94-.96s-.34-1.01-.34-1.72v-.17c0-.51.07-.95.2-1.32.13-.36.32-.66.56-.9.24-.23.52-.41.84-.52.32-.11.66-.17,1.03-.17.33,0,.64.04.92.12s.54.2.76.36.4.37.54.63c.14.26.22.56.24.9h-1.3c-.06-.33-.19-.57-.4-.73-.21-.16-.46-.23-.76-.23-.23,0-.45.06-.65.17-.2.11-.36.31-.49.57-.13.27-.19.63-.19,1.1v.17c0,.37.04.68.12.92s.18.45.31.59.27.25.43.32c.16.06.31.1.48.1.32,0,.58-.08.79-.25s.33-.4.38-.71h1.3c-.03.36-.11.67-.24.93-.13.26-.31.47-.53.63-.22.16-.47.27-.76.35-.29.07-.6.11-.94.11Z"/><path d="M497.68,33.42v-5.85h1.24v2.38h.5l1.87-2.38h1.38l-2.29,2.76,2.37,3.08h-1.46l-1.87-2.55h-.5v2.55h-1.24Z"/><path d="M503.19,33.42l2.17-5.85h1.24l2.18,5.85h-1.32l-.45-1.19h-2.16l-.44,1.19h-1.22ZM505.23,31.19h1.4l-.7-2.03-.7,2.03Z"/><path d="M509.19,33.42l1.49-2.27c-.42-.13-.73-.35-.94-.64s-.31-.65-.31-1.05c0-.38.08-.71.25-.99.17-.28.41-.5.74-.66.33-.16.74-.23,1.22-.23h2.38v5.85h-1.25v-2.14h-.92l-1.3,2.14h-1.37ZM510.69,29.45c0,.28.09.49.26.63.17.14.49.21.95.21h.88v-1.69h-.88c-.46,0-.78.07-.95.21-.17.14-.26.35-.26.63Z"/><path d="M436.5,42.69v-5.85h1.24v2.38h.5l1.87-2.38h1.38l-2.29,2.76,2.37,3.08h-1.46l-1.87-2.55h-.5v2.55h-1.24Z"/><path d="M444.8,42.79c-.37,0-.72-.06-1.04-.17-.33-.11-.62-.29-.88-.52s-.46-.54-.61-.92c-.15-.38-.22-.84-.22-1.37v-.17c0-.51.07-.95.22-1.32.15-.36.35-.66.61-.9.26-.23.55-.41.88-.52.33-.11.68-.17,1.04-.17s.72.06,1.04.17c.33.11.62.28.88.52.26.23.46.53.61.9.15.36.22.8.22,1.32v.17c0,.53-.07.99-.22,1.37-.15.38-.35.69-.61.92s-.55.41-.88.52c-.33.11-.68.17-1.04.17ZM444.8,41.74c.26,0,.49-.06.71-.18.22-.12.4-.32.53-.6.14-.28.2-.66.2-1.15v-.17c0-.46-.07-.82-.2-1.09-.14-.27-.31-.46-.53-.58s-.46-.18-.71-.18-.49.06-.71.18-.4.31-.54.58c-.14.27-.2.63-.2,1.09v.17c0,.48.07.87.2,1.15.14.28.32.48.54.6.22.12.46.18.71.18Z"/><path d="M448.64,42.69v-5.85h1.24l1.78,3.29,1.77-3.29h1.21v5.85h-1.25v-3.72l-1.39,2.55h-.74l-1.38-2.55v3.72h-1.24Z"/><path d="M455.98,42.69v-5.85h4.91v5.85h-1.24v-4.81h-2.42v4.81h-1.24Z"/><path d="M461.65,42.69l2.17-5.85h1.24l2.18,5.85h-1.32l-.45-1.19h-2.16l-.44,1.19h-1.22ZM463.69,40.46h1.4l-.7-2.03-.7,2.03Z"/><path d="M468,42.69v-5.85h1.24v2.32h2.51v-2.32h1.24v5.85h-1.24v-2.49h-2.51v2.49h-1.24Z"/><path d="M474.34,42.69v-5.85h1.24v3.88l2.55-3.88h1.2v5.85h-1.24v-3.88l-2.56,3.88h-1.19Z"/><path d="M480.3,42.69l1.49-2.27c-.42-.13-.73-.35-.94-.64s-.31-.65-.31-1.05c0-.38.08-.71.25-.99.17-.28.41-.5.74-.66.33-.16.74-.23,1.22-.23h2.38v5.85h-1.25v-2.14h-.92l-1.3,2.14h-1.37ZM481.81,38.72c0,.28.09.49.26.63.17.14.49.21.95.21h.88v-1.69h-.88c-.46,0-.78.07-.95.21-.17.14-.26.35-.26.63Z"/><path class="cls-2" d="M307.8,60.99c-16.81,0-30.49-13.68-30.49-30.49S290.99,0,307.8,0s30.49,13.68,30.49,30.49-13.68,30.49-30.49,30.49ZM307.8.71c-16.18,0-28.59,13.6-28.59,29.78s12.4,28.73,28.59,28.73,28.58-12.55,28.58-28.73S323.99.71,307.8.71Z"/><path class="cls-2" d="M307.8,58.14c-15.82,0-28.69-12.4-28.69-27.64s12.87-27.64,28.69-27.64,28.69,12.4,28.69,27.64-12.87,27.64-28.69,27.64ZM307.8,3.56c-15.19,0-26.78,12.32-26.78,26.93s11.59,25.88,26.78,25.88,26.78-11.27,26.78-25.88-11.59-26.93-26.78-26.93Z"/><path class="cls-2" d="M307.8,55.29c-14.83,0-26.89-11.12-26.89-24.79s12.06-24.79,26.89-24.79,26.89,11.12,26.89,24.79-12.06,24.79-26.89,24.79ZM307.8,6.41c-14.2,0-24.98,11.04-24.98,24.08s10.79,23.03,24.98,23.03,24.98-9.99,24.98-23.03-10.79-24.08-24.98-24.08Z"/><path class="cls-2" d="M307.8,52.43c-13.83,0-25.09-9.84-25.09-21.94s11.25-21.94,25.09-21.94,25.09,9.84,25.09,21.94-11.25,21.94-25.09,21.94ZM307.8,9.26c-13.2,0-23.18,9.76-23.18,21.23s9.98,20.18,23.18,20.18,23.18-8.72,23.18-20.18-9.98-21.23-23.18-21.23Z"/><path class="cls-2" d="M307.8,49.58c-12.84,0-23.29-8.56-23.29-19.09s10.45-19.09,23.29-19.09,23.29,8.56,23.29,19.09-10.45,19.09-23.29,19.09ZM307.8,12.11c-12.21,0-21.38,8.48-21.38,18.38s9.17,17.33,21.38,17.33,21.38-7.44,21.38-17.33-9.17-18.38-21.38-18.38Z"/><path class="cls-2" d="M307.8,46.73c-11.85,0-21.49-7.28-21.49-16.24s9.64-16.24,21.49-16.24,21.49,7.28,21.49,16.24-9.64,16.24-21.49,16.24ZM307.8,14.97c-11.22,0-19.58,7.21-19.58,15.53s8.36,14.48,19.58,14.48,19.58-6.16,19.58-14.48-8.36-15.53-19.58-15.53Z"/><path class="cls-2" d="M307.8,43.88c-10.85,0-19.69-6.01-19.69-13.39s8.83-13.39,19.69-13.39,19.68,6.01,19.68,13.39-8.83,13.39-19.68,13.39ZM307.8,17.82c-10.22,0-17.78,5.93-17.78,12.68s7.55,11.63,17.78,11.63,17.78-4.88,17.78-11.63-7.55-12.68-17.78-12.68Z"/><path class="cls-2" d="M307.8,41.03c-9.86,0-17.88-4.73-17.88-10.54s8.02-10.54,17.88-10.54,17.88,4.73,17.88,10.54-8.02,10.54-17.88,10.54ZM307.8,20.67c-9.23,0-15.98,4.65-15.98,9.83s6.75,8.78,15.98,8.78,15.98-3.6,15.98-8.78-6.75-9.83-15.98-9.83Z"/><path class="cls-2" d="M307.8,38.18c-9.02,0-16.08-3.38-16.08-7.69s7.06-7.69,16.08-7.69,16.08,3.38,16.08,7.69-7.06,7.69-16.08,7.69ZM307.8,23.52c-8.1,0-14.17,3.43-14.17,6.98s6.08,5.93,14.17,5.93,14.17-2.38,14.17-5.93-6.08-6.98-14.17-6.98Z"/><path class="cls-2" d="M307.8,35.33c-6.92,0-14.28-1.7-14.28-4.84s7.36-4.84,14.28-4.84,14.28,1.7,14.28,4.84-7.36,4.84-14.28,4.84ZM307.8,26.37c-7.52,0-12.37,2.38-12.37,4.13s4.85,3.08,12.37,3.08,12.37-1.34,12.37-3.08-4.85-4.13-12.37-4.13Z"/><path class="cls-2" d="M307.8,28.51c-4.66,0-12.48.26-12.48,1.99s7.82,1.99,12.48,1.99,12.48-.26,12.48-1.99-7.82-1.99-12.48-1.99ZM307.8,31.02c-3.92,0-10.51-.07-10.51-.52s6.58-.52,10.51-.52,10.51.07,10.51.52-6.58.52-10.51.52Z"/><polygon points="374.54 42.69 374.54 18.3 369.52 18.3 369.52 27.98 355.52 27.98 355.52 18.3 350.49 18.3 350.49 42.69 355.52 42.69 355.52 33.01 369.52 33.01 369.52 42.69 374.54 42.69"/><polygon points="430.39 18.3 424.2 18.3 418.25 27.98 410.72 27.98 410.72 18.3 405.7 18.3 405.7 42.69 410.72 42.69 410.72 33.01 418.25 33.01 424.2 42.69 430.39 42.69 422.9 30.5 430.39 18.3"/><path d="M402.97,30.5c0-6.72-5.47-12.19-12.19-12.19h-12.85v5.02h12.85c2.95,0,5.57,1.78,6.66,4.54l.07.18h-14.74v4.9h14.74l-.07.18c-1.09,2.76-3.71,4.54-6.66,4.54h-12.85v5.02h12.85c6.72,0,12.19-5.47,12.19-12.19Z"/><path class="cls-1" d="M38.42,6.12h-8.73l11.98,11.77c.63.62.98,1.46.98,2.34v28.54h-11.06c-.86,0-1.69-.34-2.3-.94l-10-9.82c-.63-.62-.98-1.46-.98-2.34v-2.13s12.14,0,12.14,0v9.16h6.12v-18.55c0-1.76-.71-3.44-1.96-4.68l-11.67-11.47c-1.23-1.21-2.88-1.88-4.6-1.88H0v35.85c0,1.76.71,3.44,1.96,4.68l8.39,8.24h8.73l-11.97-11.77c-.63-.62-.98-1.46-.98-2.34V12.24s11.05,0,11.05,0c.86,0,1.69.34,2.3.94l10,9.82c.63.62.98,1.46.98,2.34v2.07s-12.14,0-12.14,0v-9.1h-6.12v18.55c0,1.76.71,3.44,1.96,4.68l11.67,11.47c1.23,1.21,2.88,1.88,4.6,1.88h18.34V19.03c0-1.76-.71-3.44-1.96-4.68l-8.39-8.24Z"/><polygon points="65.99 33.01 80 33.01 80 42.7 85.02 42.7 85.02 18.3 80 18.3 80 27.99 65.99 27.99 65.99 18.3 60.96 18.3 60.96 42.7 65.99 42.7 65.99 33.01"/><path d="M124.2,33.28h11.92c4.14,0,7.49-3.35,7.49-7.49s-3.35-7.49-7.49-7.49h-16.95v24.39h5.02v-9.42ZM124.2,23.33h11.92c1.36,0,2.46,1.1,2.46,2.46s-1.1,2.46-2.46,2.46h-11.92v-4.92Z"/><polygon points="194.82 23.22 194.82 42.7 199.84 42.7 199.84 18.3 191.97 18.3 180.15 37.78 180.15 18.3 175.13 18.3 175.13 42.7 183 42.7 194.82 23.22"/><polygon points="156.14 42.7 161.17 42.7 161.17 23.33 170.85 23.33 170.85 18.3 146.46 18.3 146.46 23.33 156.14 23.33 156.14 42.7"/><path d="M215.34,42.7h13.19v-5.03h-13.19c-3.95,0-7.17-3.22-7.17-7.17s3.22-7.17,7.17-7.17h13.19v-5.03h-13.19c-6.73,0-12.2,5.47-12.2,12.2s5.47,12.2,12.2,12.2Z"/><path d="M95.77,35.53h13.06l2.15,7.17h5.25l-7.31-24.38h-13.23l-7.31,24.38h5.25l2.15-7.17ZM99.42,23.34h5.75l2.15,7.16h-10.05l2.15-7.16Z"/></svg>