<?xml version="1.0" encoding="utf-8"?>
<!-- Generator: Adobe Illustrator 28.2.0, SVG Export Plug-In . SVG Version: 6.00 Build 0)  -->
<svg version="1.1" id="Слой_1" xmlns="http://www.w3.org/2000/svg" xmlns:xlink="http://www.w3.org/1999/xlink" x="0px" y="0px"
	 viewBox="0 0 841.9 320.3" style="enable-background:new 0 0 841.9 320.3;" xml:space="preserve">
<style type="text/css">
	.st0{fill:#00CB62;}
	.st1{fill:#141414;}
</style>
<g>
	<g>
		<g>
			<g>
				<path class="st0" d="M152.3,292.3c-72.3,0-131.1-58.8-131.1-131.1S80,30,152.3,30c72.3,0,131.1,58.8,131.1,131.1
					S224.6,292.3,152.3,292.3z M152.3,33.1c-69.6,0-122.9,58.5-122.9,128.1s53.3,123.6,122.9,123.6c69.6,0,122.9-54,122.9-123.6
					S221.9,33.1,152.3,33.1z"/>
			</g>
			<g>
				<path class="st0" d="M152.3,280c-68,0-123.4-53.3-123.4-118.9S84.3,42.3,152.3,42.3s123.4,53.3,123.4,118.9S220.3,280,152.3,280
					z M152.3,45.3c-65.3,0-115.2,53-115.2,115.8S87,272.4,152.3,272.4S267.5,224,267.5,161.1S217.6,45.3,152.3,45.3z"/>
			</g>
			<g>
				<path class="st0" d="M152.3,267.7c-63.8,0-115.6-47.8-115.6-106.6c0-58.8,51.9-106.6,115.6-106.6c63.8,0,115.6,47.8,115.6,106.6
					C267.9,219.9,216.1,267.7,152.3,267.7z M152.3,57.6c-61,0-107.4,47.5-107.4,103.5c0,56.1,46.4,99,107.4,99
					c61,0,107.4-43,107.4-99C259.7,105.1,213.3,57.6,152.3,57.6z"/>
			</g>
			<g>
				<path class="st0" d="M152.3,255.5c-59.5,0-107.9-42.3-107.9-94.3s48.4-94.3,107.9-94.3c59.5,0,107.9,42.3,107.9,94.3
					S211.8,255.5,152.3,255.5z M152.3,69.9c-56.8,0-99.7,42-99.7,91.3s42.9,86.8,99.7,86.8c56.8,0,99.7-37.5,99.7-86.8
					S209.1,69.9,152.3,69.9z"/>
			</g>
			<g>
				<path class="st0" d="M152.3,243.2c-55.2,0-100.1-36.8-100.1-82.1s44.9-82.1,100.1-82.1c55.2,0,100.1,36.8,100.1,82.1
					S207.5,243.2,152.3,243.2z M152.3,82.1c-52.5,0-91.9,36.5-91.9,79s39.4,74.5,91.9,74.5c52.5,0,91.9-32,91.9-74.5
					S204.8,82.1,152.3,82.1z"/>
			</g>
			<g>
				<path class="st0" d="M152.3,231c-50.9,0-92.4-31.3-92.4-69.8c0-38.5,41.4-69.8,92.4-69.8s92.4,31.3,92.4,69.8
					C244.7,199.6,203.2,231,152.3,231z M152.3,94.4c-48.2,0-84.2,31-84.2,66.8c0,35.8,36,62.3,84.2,62.3s84.2-26.5,84.2-62.3
					C236.5,125.4,200.5,94.4,152.3,94.4z"/>
			</g>
			<g>
				<path class="st0" d="M152.3,218.7c-46.7,0-84.6-25.8-84.6-57.6s38-57.6,84.6-57.6s84.6,25.8,84.6,57.6S199,218.7,152.3,218.7z
					 M152.3,106.6c-44,0-76.4,25.5-76.4,54.5s32.5,50,76.4,50s76.4-21,76.4-50S196.3,106.6,152.3,106.6z"/>
			</g>
			<g>
				<path class="st0" d="M152.3,206.5c-42.4,0-76.9-20.3-76.9-45.3s34.5-45.3,76.9-45.3c42.4,0,76.9,20.3,76.9,45.3
					S194.7,206.5,152.3,206.5z M152.3,118.9c-39.7,0-68.7,20-68.7,42.3s29,37.7,68.7,37.7s68.7-15.5,68.7-37.7
					S192,118.9,152.3,118.9z"/>
			</g>
			<g>
				<path class="st0" d="M152.3,194.2c-38.8,0-69.2-14.5-69.2-33.1c0-18.5,30.4-33.1,69.2-33.1s69.2,14.5,69.2,33.1
					C221.5,179.7,191.1,194.2,152.3,194.2z M152.3,131.2c-34.8,0-60.9,14.7-60.9,30c0,15.2,26.1,25.5,60.9,25.5
					c34.8,0,60.9-10.2,60.9-25.5C213.2,145.9,187.1,131.2,152.3,131.2z"/>
			</g>
			<g>
				<path class="st0" d="M152.3,181.9c-29.8,0-61.4-7.3-61.4-20.8c0-13.5,31.6-20.8,61.4-20.8s61.4,7.3,61.4,20.8
					C213.7,174.7,182.1,181.9,152.3,181.9z M152.3,143.4c-32.3,0-53.2,10.2-53.2,17.7c0,7.5,20.9,13.2,53.2,13.2
					c32.3,0,53.2-5.7,53.2-13.2C205.5,153.7,184.6,143.4,152.3,143.4z"/>
			</g>
			<path class="st0" d="M152.3,152.6c-20,0-53.7,1.1-53.7,8.5c0,7.4,33.6,8.5,53.7,8.5c20,0,53.7-1.1,53.7-8.5
				C206,153.7,172.3,152.6,152.3,152.6z M152.3,163.4c-16.9,0-45.2-0.3-45.2-2.3c0-2,28.3-2.3,45.2-2.3c16.9,0,45.2,0.3,45.2,2.3
				C197.5,163.1,169.2,163.4,152.3,163.4z"/>
		</g>
	</g>
	<g>
		<g>
			<g>
				<polygon class="st1" points="439.2,161.1 439.2,56.3 417.6,56.3 417.6,97.9 357.4,97.9 357.4,56.3 335.8,56.3 335.8,161.1 
					357.4,161.1 357.4,119.5 417.6,119.5 417.6,161.1 				"/>
				<polygon class="st1" points="679.4,56.3 652.7,56.3 627.2,97.9 594.8,97.9 594.8,56.3 573.2,56.3 573.2,161.1 594.8,161.1 
					594.8,119.5 627.2,119.5 652.7,161.1 679.4,161.1 647.2,108.7 				"/>
				<path class="st1" d="M561.5,108.7c0-28.9-23.5-52.4-52.4-52.4h-55.3v21.6H509c12.7,0,23.9,7.7,28.6,19.5l0.3,0.8h-63.4v21.1H538
					l-0.3,0.8c-4.7,11.8-15.9,19.5-28.6,19.5h-55.3v21.6H509C537.9,161.1,561.5,137.6,561.5,108.7z"/>
			</g>
		</g>
	</g>
	<g>
		<polygon class="st1" points="349.3,240.1 386.9,240.1 386.9,266.1 400.4,266.1 400.4,200.6 386.9,200.6 386.9,226.6 349.3,226.6 
			349.3,200.6 335.8,200.6 335.8,266.1 349.3,266.1 		"/>
		<path class="st1" d="M505.5,240.8h32c11.1,0,20.1-9,20.1-20.1c0-11.1-9-20.1-20.1-20.1h-45.5v65.5h13.5V240.8z M505.5,214.1h32
			c3.7,0,6.6,3,6.6,6.6c0,3.7-3,6.6-6.6,6.6h-32V214.1L505.5,214.1z"/>
		<polygon class="st1" points="695,213.8 695,266.1 708.5,266.1 708.5,200.6 687.4,200.6 655.7,252.9 655.7,200.6 642.2,200.6 
			642.2,266.1 663.3,266.1 		"/>
		<polygon class="st1" points="591.3,266.1 604.7,266.1 604.7,214.1 630.7,214.1 630.7,200.6 565.3,200.6 565.3,214.1 591.3,214.1 
					"/>
		<path class="st1" d="M750.1,266.1h35.4v-13.5h-35.4c-10.6,0-19.3-8.6-19.3-19.3s8.6-19.3,19.3-19.3h35.4v-13.5h-35.4
			c-18.1,0-32.7,14.7-32.7,32.7S732.1,266.1,750.1,266.1L750.1,266.1z"/>
		<path class="st1" d="M429.2,246.8h35l5.8,19.2h14.1l-19.6-65.4H429l-19.6,65.4h14.1L429.2,246.8L429.2,246.8z M439,214.1h15.4
			l5.8,19.2h-27L439,214.1L439,214.1z"/>
	</g>
</g>
</svg>
