<svg xmlns="http://www.w3.org/2000/svg">

  <symbol id="logo" width="32" height="32" viewBox="0 0 32 32" fill="none" xmlns="http://www.w3.org/2000/svg">
    <path fill-rule="evenodd" clip-rule="evenodd" d="M17.1594 30.8223C17.9324 31.5805 18.9519 32 20.034 32H32V8.34687C32 7.25382 31.5546 6.18654 30.7743 5.42105L25.257 0H20.2144L27.7267 7.38263C28.1942 7.84267 28.4628 8.48304 28.4628 9.14181V28.4669H20.807C20.1555 28.4669 19.5445 28.2167 19.0807 27.7603L12.4076 21.2058C11.9402 20.7457 11.6715 20.1053 11.6715 19.4466V17.75H20.3248V23.8629H23.8583V11.7585C23.8583 10.6654 23.4129 9.59816 22.6326 8.83266L14.8406 1.17769C14.0676 0.419552 13.0481 0 11.966 0H0V23.6531C0 24.7462 0.445365 25.8135 1.22567 26.579L6.74304 32H11.7856L4.27329 24.6174C3.80584 24.1573 3.53715 23.517 3.53715 22.8582V3.53307H11.1893C11.8408 3.53307 12.4518 3.78332 12.9156 4.23968L19.5887 10.7943C20.0561 11.2543 20.3248 11.8947 20.3248 12.5534V14.2132H11.6715V8.13709H8.13803V20.2415C8.13803 21.3346 8.58339 22.4018 9.3637 23.1673L17.1557 30.826L17.1594 30.8223Z" fill="#EC5F2C" />
  </symbol>

  <symbol id="logo2" width="33" height="34" viewBox="0 0 33 34" fill="none" xmlns="http://www.w3.org/2000/svg">
    <path d="M16.5 33.9956C7.40102 33.9956 0 26.451 0 17.1798C0 7.90872 7.40102 0.359684 16.5 0.359684C25.599 0.359684 33 7.90431 33 17.1798C33 26.4554 25.599 34 16.5 34V33.9956ZM16.5 0.75167C7.74234 0.75167 1.0326 8.25225 1.0326 17.1798C1.0326 26.1074 7.74234 33.0266 16.5 33.0266C25.2577 33.0266 31.9674 26.103 31.9674 17.1798C31.9674 8.25666 25.2533 0.75167 16.5 0.75167Z" fill="#00C974" />
    <path d="M16.5 32.4233C7.94109 32.4233 0.97644 25.5833 0.97644 17.1754C0.97644 8.76756 7.94109 1.93203 16.5 1.93203C25.0589 1.93203 32.0236 8.77197 32.0236 17.1798C32.0236 25.5877 25.0589 32.4277 16.5 32.4277V32.4233ZM16.5 2.32402C8.28241 2.32402 2.00904 9.11991 2.00904 17.1798C2.00904 25.2398 8.28241 31.4543 16.5 31.4543C24.7176 31.4543 30.991 25.2354 30.991 17.1798C30.991 9.12431 24.7176 2.32402 16.5 2.32402Z" fill="#00C974" />
    <path d="M16.5 30.8509C8.47683 30.8509 1.94855 24.7157 1.94855 17.1754C1.94855 9.63521 8.47683 3.50437 16.5 3.50437C24.5232 3.50437 31.0471 9.63961 31.0471 17.1798C31.0471 24.7201 24.5189 30.8553 16.5 30.8553V30.8509ZM16.5 3.89636C8.81815 3.89636 2.98115 9.98755 2.98115 17.1798C2.98115 24.3721 8.81815 29.8819 16.5 29.8819C24.1819 29.8819 30.0145 24.3677 30.0145 17.1798C30.0145 9.99196 24.1775 3.89636 16.5 3.89636Z" fill="#00C974" />
    <path d="M16.5 29.2785C9.01258 29.2785 2.92499 23.848 2.92499 17.1754C2.92499 10.5029 9.01258 5.07232 16.5 5.07232C23.9874 5.07232 30.075 10.5029 30.075 17.1754C30.075 23.848 23.9874 29.2785 16.5 29.2785ZM16.5 5.46871C9.35821 5.46871 3.95759 10.8552 3.95759 17.1798C3.95759 23.5045 9.35821 28.3096 16.5 28.3096C23.6418 28.3096 29.0424 23.5045 29.0424 17.1798C29.0424 10.8552 23.6418 5.46871 16.5 5.46871Z" fill="#00C974" />
    <path d="M16.5 27.7062C9.55265 27.7062 3.90143 22.9804 3.90143 17.1754C3.90143 11.3705 9.55265 6.64467 16.5 6.64467C23.4474 6.64467 29.0986 11.3661 29.0986 17.1754C29.0986 22.9848 23.4474 27.7062 16.5 27.7062ZM16.5 7.04106C9.89397 7.04106 4.93403 11.7185 4.93403 17.1798C4.93403 22.6412 9.89397 26.7373 16.5 26.7373C23.1061 26.7373 28.066 22.6368 28.066 17.1798C28.066 11.7229 23.1061 7.04106 16.5 7.04106Z" fill="#00C974" />
    <path d="M16.5 26.1339C10.0884 26.1339 4.87354 22.1171 4.87354 17.1754C4.87354 12.2338 10.0884 8.21702 16.5 8.21702C22.9116 8.21702 28.1265 12.2338 28.1265 17.1754C28.1265 22.1171 22.9116 26.1339 16.5 26.1339ZM16.5 8.61341C10.4297 8.61341 5.90614 12.5861 5.90614 17.1798C5.90614 21.7736 10.4297 25.1649 16.5 25.1649C22.5703 25.1649 27.0939 21.7692 27.0939 17.1798C27.0939 12.5905 22.5703 8.61341 16.5 8.61341Z" fill="#00C974" />
    <path d="M16.5 24.5615C10.6285 24.5615 5.84998 21.2494 5.84998 17.1754C5.84998 13.1014 10.6285 9.78937 16.5 9.78937C22.3716 9.78937 27.1501 13.1014 27.1501 17.1754C27.1501 21.2494 22.3716 24.5615 16.5 24.5615ZM16.5 10.1858C10.9698 10.1858 6.88258 13.4538 6.88258 17.1798C6.88258 20.9059 10.9698 23.5926 16.5 23.5926C22.0303 23.5926 26.1175 20.9015 26.1175 17.1798C26.1175 13.4582 22.0303 10.1858 16.5 10.1858Z" fill="#00C974" />
    <path d="M16.5 22.9892C11.1642 22.9892 6.82208 20.3818 6.82208 17.1754C6.82208 13.9691 11.1642 11.3617 16.5 11.3617C21.8358 11.3617 26.1779 13.9691 26.1779 17.1754C26.1779 20.3818 21.8358 22.9892 16.5 22.9892ZM16.5 11.7581C11.5055 11.7581 7.85468 14.3214 7.85468 17.1798C7.85468 20.0383 11.5055 22.0202 16.5 22.0202C21.4945 22.0202 25.1453 20.0338 25.1453 17.1798C25.1453 14.3258 21.4945 11.7581 16.5 11.7581Z" fill="#00C974" />
    <path d="M16.5 21.4168C11.6222 21.4168 7.79852 19.5538 7.79852 17.1754C7.79852 14.7971 11.6222 12.9341 16.5 12.9341C21.3779 12.9341 25.2015 14.7971 25.2015 17.1754C25.2015 19.5538 21.3779 21.4168 16.5 21.4168ZM16.5 13.3305C12.119 13.3305 8.83112 15.2243 8.83112 17.1798C8.83112 19.1354 12.119 20.4479 16.5 20.4479C20.881 20.4479 24.1689 19.1354 24.1689 17.1798C24.1689 15.2243 20.881 13.3305 16.5 13.3305Z" fill="#00C974" />
    <path d="M16.5 19.8445C12.7541 19.8445 8.77063 18.9107 8.77063 17.1754C8.77063 15.4401 12.7541 14.5064 16.5 14.5064C20.2459 14.5064 24.2251 15.4401 24.2251 17.1754C24.2251 18.9107 20.2459 19.8445 16.5 19.8445ZM16.5 14.9028C12.4301 14.9028 9.80323 16.2153 9.80323 17.1798C9.80323 18.1444 12.4301 18.8755 16.5 18.8755C20.5699 18.8755 23.1925 18.14 23.1925 17.1798C23.1925 16.2197 20.5656 14.9028 16.5 14.9028Z" fill="#00C974" />
    <path d="M16.5 16.0832C13.9768 16.0832 9.74707 16.2241 9.74707 17.1798C9.74707 18.1356 13.9768 18.2765 16.5 18.2765C19.0232 18.2765 23.253 18.1356 23.253 17.1798C23.253 16.2241 19.0232 16.0832 16.5 16.0832ZM16.5 17.4661C14.3786 17.4661 10.8142 17.4265 10.8142 17.1754C10.8142 16.9244 14.3743 16.8847 16.5 16.8847C18.6257 16.8847 22.1858 16.9244 22.1858 17.1754C22.1858 17.4265 18.6257 17.4661 16.5 17.4661Z" fill="#00C974" />
  </symbol>

  <symbol id="mainLogo" width="169" height="32" viewBox="0 0 169 32" fill="none" xmlns="http://www.w3.org/2000/svg">
    <path fill-rule="evenodd" clip-rule="evenodd" d="M17.1594 30.8223C17.9324 31.5805 18.9519 32 20.034 32H32V8.34687C32 7.25382 31.5546 6.18654 30.7743 5.42105L25.257 0H20.2144L27.7267 7.38263C28.1942 7.84267 28.4628 8.48304 28.4628 9.14181V28.4669H20.807C20.1555 28.4669 19.5445 28.2167 19.0807 27.7603L12.4076 21.2058C11.9402 20.7457 11.6715 20.1053 11.6715 19.4466V17.75H20.3248V23.8629H23.8583V11.7585C23.8583 10.6654 23.4129 9.59816 22.6326 8.83266L14.8406 1.17769C14.0676 0.419552 13.0481 0 11.966 0H0V23.6531C0 24.7462 0.445365 25.8135 1.22567 26.579L6.74304 32H11.7856L4.27329 24.6174C3.80584 24.1573 3.53715 23.517 3.53715 22.8582V3.53307H11.1893C11.8408 3.53307 12.4518 3.78332 12.9156 4.23968L19.5887 10.7943C20.0561 11.2543 20.3248 11.8947 20.3248 12.5534V14.2132H11.6715V8.13709H8.13803V20.2415C8.13803 21.3346 8.58339 22.4018 9.3637 23.1673L17.1557 30.826L17.1594 30.8223Z" fill="#EC5F2C" />
    <path d="M61.7123 26.545V9H58.5995V16.2126H47.5921V9H44.4793V26.545H47.5921V19.3365H58.5995V26.545H61.7123Z" fill="#141414" />
    <path d="M99.9333 9H87.6661V26.545H90.7789V19.5336H99.9333C102.825 19.5336 105.181 17.1732 105.181 14.2668C105.181 11.3604 102.829 9 99.9333 9ZM99.9333 16.4055H90.783V12.1239H99.9333C101.111 12.1239 102.064 13.0845 102.064 14.2668C102.064 15.449 101.107 16.4096 99.9333 16.4096V16.4055Z" fill="#141414" />
    <path d="M146.895 26.545V9H141.533L132.289 24.2913V9H129.172V26.545H134.53L143.779 11.2537V26.545H146.895Z" fill="#141414" />
    <path d="M125.388 9H107.905V12.1239H115.088V26.545H118.201V12.1239H125.388V9Z" fill="#141414" />
    <path d="M158.692 26.545H168.17V23.4211H158.692C155.592 23.4211 153.068 20.8882 153.068 17.7766C153.068 14.665 155.592 12.1281 158.692 12.1281H168.17V9H158.692C153.874 9 149.951 12.9368 149.951 17.7725C149.951 22.6083 153.874 26.545 158.692 26.545Z" fill="#141414" />
    <path d="M79.9065 21.2084L79.927 21.2823L81.4977 26.545H84.7496L79.5138 9.00821H70.1549L64.9192 26.545H68.1711L69.7623 21.2084H79.9065ZM72.4742 12.1322H77.1987L77.2191 12.206L78.9739 18.0845H70.6949L72.4701 12.1363L72.4742 12.1322Z" fill="#141414" />
  </symbol>

  <symbol id="nekLogo" width="104" height="34" viewBox="0 0 104 34" fill="none" xmlns="http://www.w3.org/2000/svg">
    <path d="M16.5 33.9956C7.40102 33.9956 0 26.451 0 17.1798C0 7.90872 7.40102 0.359684 16.5 0.359684C25.599 0.359684 33 7.90431 33 17.1798C33 26.4554 25.599 34 16.5 34V33.9956ZM16.5 0.75167C7.74234 0.75167 1.0326 8.25225 1.0326 17.1798C1.0326 26.1074 7.74234 33.0266 16.5 33.0266C25.2577 33.0266 31.9674 26.103 31.9674 17.1798C31.9674 8.25666 25.2533 0.75167 16.5 0.75167Z" fill="#00C974" />
    <path d="M16.5 32.4233C7.94109 32.4233 0.97644 25.5833 0.97644 17.1754C0.97644 8.76756 7.94109 1.93203 16.5 1.93203C25.0589 1.93203 32.0236 8.77197 32.0236 17.1798C32.0236 25.5877 25.0589 32.4277 16.5 32.4277V32.4233ZM16.5 2.32402C8.28241 2.32402 2.00904 9.11991 2.00904 17.1798C2.00904 25.2398 8.28241 31.4543 16.5 31.4543C24.7176 31.4543 30.991 25.2354 30.991 17.1798C30.991 9.12431 24.7176 2.32402 16.5 2.32402Z" fill="#00C974" />
    <path d="M16.5 30.8509C8.47683 30.8509 1.94855 24.7157 1.94855 17.1754C1.94855 9.63521 8.47683 3.50437 16.5 3.50437C24.5232 3.50437 31.0471 9.63961 31.0471 17.1798C31.0471 24.7201 24.5189 30.8553 16.5 30.8553V30.8509ZM16.5 3.89636C8.81815 3.89636 2.98115 9.98755 2.98115 17.1798C2.98115 24.3721 8.81815 29.8819 16.5 29.8819C24.1819 29.8819 30.0145 24.3677 30.0145 17.1798C30.0145 9.99196 24.1775 3.89636 16.5 3.89636Z" fill="#00C974" />
    <path d="M16.5 29.2785C9.01258 29.2785 2.92499 23.848 2.92499 17.1754C2.92499 10.5029 9.01258 5.07232 16.5 5.07232C23.9874 5.07232 30.075 10.5029 30.075 17.1754C30.075 23.848 23.9874 29.2785 16.5 29.2785ZM16.5 5.46871C9.35821 5.46871 3.95759 10.8552 3.95759 17.1798C3.95759 23.5045 9.35821 28.3096 16.5 28.3096C23.6418 28.3096 29.0424 23.5045 29.0424 17.1798C29.0424 10.8552 23.6418 5.46871 16.5 5.46871Z" fill="#00C974" />
    <path d="M16.5 27.7062C9.55265 27.7062 3.90143 22.9804 3.90143 17.1754C3.90143 11.3705 9.55265 6.64467 16.5 6.64467C23.4474 6.64467 29.0986 11.3661 29.0986 17.1754C29.0986 22.9848 23.4474 27.7062 16.5 27.7062ZM16.5 7.04106C9.89397 7.04106 4.93403 11.7185 4.93403 17.1798C4.93403 22.6412 9.89397 26.7373 16.5 26.7373C23.1061 26.7373 28.066 22.6368 28.066 17.1798C28.066 11.7229 23.1061 7.04106 16.5 7.04106Z" fill="#00C974" />
    <path d="M16.5 26.1339C10.0884 26.1339 4.87354 22.1171 4.87354 17.1754C4.87354 12.2338 10.0884 8.21702 16.5 8.21702C22.9116 8.21702 28.1265 12.2338 28.1265 17.1754C28.1265 22.1171 22.9116 26.1339 16.5 26.1339ZM16.5 8.61341C10.4297 8.61341 5.90614 12.5861 5.90614 17.1798C5.90614 21.7736 10.4297 25.1649 16.5 25.1649C22.5703 25.1649 27.0939 21.7692 27.0939 17.1798C27.0939 12.5905 22.5703 8.61341 16.5 8.61341Z" fill="#00C974" />
    <path d="M16.5 24.5615C10.6285 24.5615 5.84998 21.2494 5.84998 17.1754C5.84998 13.1014 10.6285 9.78937 16.5 9.78937C22.3716 9.78937 27.1501 13.1014 27.1501 17.1754C27.1501 21.2494 22.3716 24.5615 16.5 24.5615ZM16.5 10.1858C10.9698 10.1858 6.88258 13.4538 6.88258 17.1798C6.88258 20.9059 10.9698 23.5926 16.5 23.5926C22.0303 23.5926 26.1175 20.9015 26.1175 17.1798C26.1175 13.4582 22.0303 10.1858 16.5 10.1858Z" fill="#00C974" />
    <path d="M16.5 22.9892C11.1642 22.9892 6.82208 20.3818 6.82208 17.1754C6.82208 13.9691 11.1642 11.3617 16.5 11.3617C21.8358 11.3617 26.1779 13.9691 26.1779 17.1754C26.1779 20.3818 21.8358 22.9892 16.5 22.9892ZM16.5 11.7581C11.5055 11.7581 7.85468 14.3214 7.85468 17.1798C7.85468 20.0383 11.5055 22.0202 16.5 22.0202C21.4945 22.0202 25.1453 20.0338 25.1453 17.1798C25.1453 14.3258 21.4945 11.7581 16.5 11.7581Z" fill="#00C974" />
    <path d="M16.5 21.4168C11.6222 21.4168 7.79852 19.5538 7.79852 17.1754C7.79852 14.7971 11.6222 12.9341 16.5 12.9341C21.3779 12.9341 25.2015 14.7971 25.2015 17.1754C25.2015 19.5538 21.3779 21.4168 16.5 21.4168ZM16.5 13.3305C12.119 13.3305 8.83112 15.2243 8.83112 17.1798C8.83112 19.1354 12.119 20.4479 16.5 20.4479C20.881 20.4479 24.1689 19.1354 24.1689 17.1798C24.1689 15.2243 20.881 13.3305 16.5 13.3305Z" fill="#00C974" />
    <path d="M16.5 19.8445C12.7541 19.8445 8.77063 18.9107 8.77063 17.1754C8.77063 15.4401 12.7541 14.5064 16.5 14.5064C20.2459 14.5064 24.2251 15.4401 24.2251 17.1754C24.2251 18.9107 20.2459 19.8445 16.5 19.8445ZM16.5 14.9028C12.4301 14.9028 9.80323 16.2153 9.80323 17.1798C9.80323 18.1444 12.4301 18.8755 16.5 18.8755C20.5699 18.8755 23.1925 18.14 23.1925 17.1798C23.1925 16.2197 20.5656 14.9028 16.5 14.9028Z" fill="#00C974" />
    <path d="M16.5 16.0832C13.9768 16.0832 9.74707 16.2241 9.74707 17.1798C9.74707 18.1356 13.9768 18.2765 16.5 18.2765C19.0232 18.2765 23.253 18.1356 23.253 17.1798C23.253 16.2241 19.0232 16.0832 16.5 16.0832ZM16.5 17.4661C14.3786 17.4661 10.8142 17.4265 10.8142 17.1754C10.8142 16.9244 14.3743 16.8847 16.5 16.8847C18.6257 16.8847 22.1858 16.9244 22.1858 17.1754C22.1858 17.4265 18.6257 17.4661 16.5 17.4661Z" fill="#00C974" />
    <path d="M62.4852 25.9704V8H59.3254V15.3746H48.2634V8H45.1035V25.9704H48.2634V18.5958H59.3254V25.9704H62.4852Z" fill="#141414" />
    <path d="M104 8H100.064L95.62 15.3746H89.5212V8H86.3665V25.9704H89.5212V18.5958H95.62L100.064 25.9704H104L98.5795 16.9878L104 8Z" fill="#141414" />
    <path d="M83.7359 16.9878C83.7359 12.033 79.7796 8 74.9191 8H65.6091V11.2212H74.9191C77.2518 11.2212 79.3121 12.651 80.1753 14.8666L80.3911 15.4218H69.2365V18.5539H80.3911L80.1753 19.1091C79.3121 21.3246 77.2518 22.7597 74.9191 22.7597H65.6091V25.9809H74.9191C79.7796 25.9809 83.7359 21.9479 83.7359 16.9931V16.9878Z" fill="#141414" />
  </symbol>

  <symbol id="arrowBackMenu" width="24" height="24" viewBox="0 0 24 24" fill="none" xmlns="http://www.w3.org/2000/svg">
    <path d="M1.57574 12.5757C1.34142 12.8101 1.34142 13.1899 1.57574 13.4243L5.39411 17.2426C5.62843 17.477 6.00833 17.477 6.24264 17.2426C6.47696 17.0083 6.47696 16.6284 6.24264 16.3941L2.84853 13L6.24264 9.60589C6.47696 9.37157 6.47696 8.99167 6.24264 8.75736C6.00833 8.52304 5.62843 8.52304 5.39411 8.75736L1.57574 12.5757ZM22 13.6C22.3314 13.6 22.6 13.3314 22.6 13C22.6 12.6686 22.3314 12.4 22 12.4L22 13.6ZM2 13L2 13.6L22 13.6L22 13L22 12.4L2 12.4L2 13Z" fill="#EC5F2C" />
  </symbol>

  <symbol id="arrowDrop1" width="7" height="4" viewBox="0 0 7 4" fill="none" xmlns="http://www.w3.org/2000/svg">
    <path d="M3.22516 3.87947C3.29808 3.95665 3.39693 4 3.5 4C3.60307 4 3.70192 3.95665 3.77484 3.87947L6.88626 0.582471C6.95909 0.505197 7 0.400449 7 0.291236C7 0.182022 6.95909 0.0772743 6.88626 7.05312e-07L0.113743 1.1324e-07C0.0409096 0.0772737 3.33778e-07 0.182021 3.2423e-07 0.291235C3.14683e-07 0.400449 0.0409096 0.505196 0.113743 0.58247L3.22516 3.87947Z" fill="currentColor" />
  </symbol>

  <symbol id="burger" width="20" height="20" viewBox="0 0 20 20" fill="none" xmlns="http://www.w3.org/2000/svg">
    <path d="M3.4375 5.9375H16.5625M3.4375 10H16.5625M3.4375 14.0625H16.5625" stroke="white" stroke-width="1.4" stroke-miterlimit="10" stroke-linecap="round" />
  </symbol>

  <symbol id="burgerClose" width="20" height="20" viewBox="0 0 20 20" fill="none" xmlns="http://www.w3.org/2000/svg">
    <path d="M10.0002 10L5.8335 5.83334M10.0002 10L14.1668 14.1667M10.0002 10L14.1668 5.83334M10.0002 10L5.8335 14.1667" stroke="white" stroke-width="1.3" stroke-linecap="round" stroke-linejoin="round" />
  </symbol>

  <symbol id="x2" width="144" height="28" viewBox="0 0 144 28" fill="none" xmlns="http://www.w3.org/2000/svg">
    <g opacity="0.3" clip-path="url(#clip0_4010_101)">
      <mask id="mask0_4010_101" style="mask-type:luminance" maskUnits="userSpaceOnUse" x="0" y="0" width="144" height="28">
        <path d="M144 0H0V28H144V0Z" fill="white" />
      </mask>
      <g mask="url(#mask0_4010_101)">
        <path d="M54.3775 2.42566C56.2187 2.42566 57.1393 3.29832 57.1393 5.04366C57.1393 6.78899 56.2187 7.66166 54.3775 7.66166H49.3412V11.0497C49.3412 11.4603 49.1246 11.6657 48.6913 11.6657H47.7166V2.42566H54.3775ZM54.0526 6.42966C55.0273 6.42966 55.5147 5.96766 55.5147 5.04366C55.5147 4.11966 55.0273 3.65766 54.0526 3.65766H49.3412V6.42966H54.0526ZM63.5942 4.27366C65.4354 4.27366 66.3561 5.14632 66.3561 6.89166V11.6657H65.3813C64.9481 11.6657 64.7314 11.4603 64.7314 11.0497V10.5107C64.3253 11.2807 63.7161 11.6657 62.9038 11.6657H60.4262C58.9099 11.6657 58.1518 10.947 58.1518 9.50966C58.1518 8.07232 58.9099 7.35366 60.4262 7.35366H64.7314V6.89166C64.7314 5.96766 64.2441 5.50566 63.2693 5.50566H59.1265C58.6933 5.50566 58.4767 5.30032 58.4767 4.88966V4.27366H63.5942ZM64.7314 9.35566V8.58566H60.7511C60.1013 8.58566 59.7764 8.89366 59.7764 9.50966C59.7764 10.1257 60.1013 10.4337 60.7511 10.4337H63.0256C63.7838 10.4337 64.3524 10.0743 64.7314 9.35566ZM74.2919 7.93116C74.9553 8.18782 75.2802 8.75249 75.2802 9.62516C75.2802 10.9855 74.5627 11.6657 73.1276 11.6657H67.6446V11.0497C67.6446 10.639 67.8612 10.4337 68.2944 10.4337H72.6809C73.3307 10.4337 73.6556 10.1257 73.6556 9.50966C73.6556 8.89366 73.3307 8.58566 72.6809 8.58566H68.2944V7.35366H72.5184C73.1682 7.35366 73.4932 7.04566 73.4932 6.42966C73.4932 5.81366 73.1682 5.50566 72.5184 5.50566H68.4569C68.0236 5.50566 67.807 5.30032 67.807 4.88966V4.27366H72.9652C74.4002 4.27366 75.1178 4.95382 75.1178 6.31416C75.1178 7.10982 74.847 7.64882 74.2919 7.93116ZM82.1517 4.27366C83.993 4.27366 84.9136 5.14632 84.9136 6.89166V9.04766C84.9136 10.793 83.993 11.6657 82.1517 11.6657H80.0804C79.2681 11.6657 78.6588 11.2807 78.2527 10.5107V13.3597C78.2527 13.7703 78.0361 13.9757 77.6028 13.9757H76.6281V4.27366H77.6028C78.0361 4.27366 78.2527 4.47899 78.2527 4.88966V5.42866C78.6588 4.65866 79.2681 4.27366 80.0804 4.27366H82.1517ZM83.289 9.04766V6.89166C83.289 5.96766 82.8016 5.50566 81.8268 5.50566H79.9585C79.2004 5.50566 78.6318 5.86499 78.2527 6.58366V9.35566C78.6318 10.0743 79.2004 10.4337 79.9585 10.4337H81.8268C82.8016 10.4337 83.289 9.97166 83.289 9.04766ZM91.5702 4.27366C93.4114 4.27366 94.3321 5.14632 94.3321 6.89166V11.6657H93.3573C92.9241 11.6657 92.7075 11.4603 92.7075 11.0497V10.5107C92.3013 11.2807 91.6921 11.6657 90.8798 11.6657H88.4022C86.8859 11.6657 86.1278 10.947 86.1278 9.50966C86.1278 8.07232 86.8859 7.35366 88.4022 7.35366H92.7075V6.89166C92.7075 5.96766 92.2201 5.50566 91.2453 5.50566H87.1025C86.6693 5.50566 86.4527 5.30032 86.4527 4.88966V4.27366H91.5702ZM92.7075 9.35566V8.58566H88.7271C88.0773 8.58566 87.7524 8.89366 87.7524 9.50966C87.7524 10.1257 88.0773 10.4337 88.7271 10.4337H91.0016C91.7598 10.4337 92.3284 10.0743 92.7075 9.35566ZM99.4925 4.27366C98.0845 4.27366 97.3806 4.94099 97.3806 6.27566V6.50666C97.7867 5.73666 98.3959 5.35166 99.2082 5.35166H101.442C103.283 5.35166 104.204 6.22432 104.204 7.96966V9.04766C104.204 10.793 103.283 11.6657 101.442 11.6657H98.5178C96.6766 11.6657 95.7559 10.793 95.7559 9.04766V6.27566C95.7559 4.11966 96.8932 3.04166 99.1676 3.04166H101.605C102.254 3.04166 102.579 2.73366 102.579 2.11766V1.96366C102.579 1.55299 102.796 1.34766 103.229 1.34766H104.204V2.11766C104.204 3.55499 103.446 4.27366 101.929 4.27366H99.4925ZM99.0864 6.58366C98.3283 6.58366 97.7596 6.94299 97.3806 7.66166V9.04766C97.3806 9.97166 97.8679 10.4337 98.8427 10.4337H101.117C102.092 10.4337 102.579 9.97166 102.579 9.04766V7.96966C102.579 7.04566 102.092 6.58366 101.117 6.58366H99.0864ZM111.239 4.27366C113.08 4.27366 114.001 5.14632 114.001 6.89166V9.04766C114.001 10.793 113.08 11.6657 111.239 11.6657H108.315C106.473 11.6657 105.553 10.793 105.553 9.04766V6.89166C105.553 5.14632 106.473 4.27366 108.315 4.27366H111.239ZM112.376 9.04766V6.89166C112.376 5.96766 111.889 5.50566 110.914 5.50566H108.64C107.665 5.50566 107.177 5.96766 107.177 6.89166V9.04766C107.177 9.97166 107.665 10.4337 108.64 10.4337H110.914C111.889 10.4337 112.376 9.97166 112.376 9.04766ZM114.808 4.27366H123.256V4.88966C123.256 5.30032 123.04 5.50566 122.606 5.50566H119.844V11.6657H118.22V5.50566H115.458C115.025 5.50566 114.808 5.30032 114.808 4.88966V4.27366ZM132.483 4.27366L129.207 7.96966L132.483 11.6657H131.224C130.791 11.6657 130.398 11.4603 130.033 11.0497L127.853 8.58566H125.822V11.0497C125.822 11.4603 125.606 11.6657 125.173 11.6657H124.198V4.27366H125.173C125.606 4.27366 125.822 4.47899 125.822 4.88966V7.35366H127.853L130.033 4.88966C130.398 4.47899 130.791 4.27366 131.224 4.27366H132.483ZM138.809 4.27366C140.651 4.27366 141.571 5.14632 141.571 6.89166V11.6657H140.597C140.163 11.6657 139.947 11.4603 139.947 11.0497V10.5107C139.541 11.2807 138.931 11.6657 138.119 11.6657H135.641C134.125 11.6657 133.367 10.947 133.367 9.50966C133.367 8.07232 134.125 7.35366 135.641 7.35366H139.947V6.89166C139.947 5.96766 139.459 5.50566 138.485 5.50566H134.342C133.909 5.50566 133.692 5.30032 133.692 4.88966V4.27366H138.809ZM139.947 9.35566V8.58566H135.966C135.317 8.58566 134.992 8.89366 134.992 9.50966C134.992 10.1257 135.317 10.4337 135.966 10.4337H138.241C138.999 10.4337 139.568 10.0743 139.947 9.35566Z" fill="currentColor" />
        <path d="M54.4317 24.4334C54.8649 24.4334 55.0815 24.6387 55.0815 25.0494V25.6654H50.2076C48.3664 25.6654 47.4458 24.7927 47.4458 23.0474V20.8914C47.4458 19.146 48.3664 18.2734 50.2076 18.2734H54.919V18.8894C54.919 19.3 54.7024 19.5054 54.2692 19.5054H50.5326C49.5578 19.5054 49.0704 19.9674 49.0704 20.8914V23.0474C49.0704 23.9714 49.5578 24.4334 50.5326 24.4334H54.4317ZM61.3995 18.2734C63.2408 18.2734 64.1614 19.146 64.1614 20.8914V25.6654H63.1866C62.7534 25.6654 62.5368 25.46 62.5368 25.0494V24.5104C62.1306 25.2804 61.5214 25.6654 60.7091 25.6654H58.2315C56.7152 25.6654 55.9571 24.9467 55.9571 23.5094C55.9571 22.072 56.7152 21.3534 58.2315 21.3534H62.5368V20.8914C62.5368 19.9674 62.0494 19.5054 61.0746 19.5054H56.9318C56.4986 19.5054 56.282 19.3 56.282 18.8894V18.2734H61.3995ZM62.5368 23.3554V22.5854H58.5564C57.9066 22.5854 57.5817 22.8934 57.5817 23.5094C57.5817 24.1254 57.9066 24.4334 58.5564 24.4334H60.8309C61.5891 24.4334 62.1577 24.074 62.5368 23.3554ZM69.1323 17.3494C68.0492 17.3494 67.5077 16.836 67.5077 15.8094V15.1934H68.4825C68.7533 15.1934 68.8886 15.3217 68.8886 15.5784V15.8094C68.8886 16.1687 69.0782 16.3484 69.4573 16.3484H70.1071C70.4862 16.3484 70.6757 16.1687 70.6757 15.8094V15.5784C70.6757 15.3217 70.8111 15.1934 71.0819 15.1934H72.0566V15.8094C72.0566 16.836 71.5151 17.3494 70.432 17.3494H69.1323ZM72.2191 18.2734H73.8437V25.6654H72.8689C72.4357 25.6654 72.2191 25.46 72.2191 25.0494V20.1855L67.3453 25.6654H65.7206V18.2734H66.6954C67.1286 18.2734 67.3453 18.4787 67.3453 18.8894V23.7532L72.2191 18.2734ZM74.7877 18.2734H83.2357V18.8894C83.2357 19.3 83.0191 19.5054 82.5859 19.5054H79.824V25.6654H78.1994V19.5054H75.4376C75.0043 19.5054 74.7877 19.3 74.7877 18.8894V18.2734ZM89.3491 18.2734C91.1903 18.2734 92.1109 19.146 92.1109 20.8914V25.6654H91.1361C90.7029 25.6654 90.4863 25.46 90.4863 25.0494V24.5104C90.0801 25.2804 89.4709 25.6654 88.6586 25.6654H86.1811C84.6648 25.6654 83.9066 24.9467 83.9066 23.5094C83.9066 22.072 84.6648 21.3534 86.1811 21.3534H90.4863V20.8914C90.4863 19.9674 89.9989 19.5054 89.0241 19.5054H84.8814C84.4481 19.5054 84.2315 19.3 84.2315 18.8894V18.2734H89.3491ZM90.4863 23.3554V22.5854H86.506C85.8561 22.5854 85.5312 22.8934 85.5312 23.5094C85.5312 24.1254 85.8561 24.4334 86.506 24.4334H88.7805C89.5386 24.4334 90.1072 24.074 90.4863 23.3554Z" fill="currentColor" />
        <path d="M0 25.6668H5.08308L12.9231 17.0918H7.84L0 25.6668Z" fill="currentColor" />
        <path d="M26.9637 18.2095L34.4799 8.47036C35.1882 7.48123 35.7392 6.64427 35.7392 5.46493C35.7392 3.10623 33.7716 1.16602 31.3318 1.16602H23.8943L16.7717 10.4106H21.4151L27.5147 2.49753H29.7577C31.0564 2.57362 31.9221 3.6008 31.9221 4.89427C31.9221 5.04645 31.9221 5.19862 31.8827 5.3508C31.8039 5.69318 31.6465 5.99753 31.4105 6.26383L21.2971 19.3508L11.105 6.37797H6.46155L16.7717 19.541H21.1791H21.4545H37.7461L38.7692 18.2475H26.9637V18.2095Z" fill="currentColor" />
      </g>
    </g>
    <defs>
      <clipPath id="clip0_4010_101">
        <rect width="144" height="28" fill="white" />
      </clipPath>
    </defs>
  </symbol>

  <symbol id="linkAll" width="12" height="16" viewBox="0 0 12 16" fill="none" xmlns="http://www.w3.org/2000/svg">
    <path d="M1.61109 13.0963C1.3963 13.3111 1.3963 13.6593 1.61109 13.8741C1.82588 14.0889 2.17412 14.0889 2.38891 13.8741L1.61109 13.0963ZM10.3282 5.70705C10.3282 5.4033 10.0819 5.15705 9.77817 5.15705L4.82817 5.15705C4.52442 5.15705 4.27817 5.4033 4.27817 5.70705C4.27817 6.01081 4.52442 6.25705 4.82817 6.25705L9.22817 6.25705L9.22817 10.6571C9.22817 10.9608 9.47442 11.2071 9.77817 11.2071C10.0819 11.2071 10.3282 10.9608 10.3282 10.6571L10.3282 5.70705ZM2 13.4852L2.38891 13.8741L10.1671 6.09596L9.77817 5.70706L9.38927 5.31815L1.61109 13.0963L2 13.4852Z" fill="#EC5F2C" />
  </symbol>

  <symbol id="arrSwBtPrev" width="18" height="12" viewBox="0 0 18 12" fill="none" xmlns="http://www.w3.org/2000/svg">
    <path d="M17.5657 6.56569C17.8781 6.25327 17.8781 5.74673 17.5657 5.43431L12.4745 0.343145C12.1621 0.030726 11.6556 0.030726 11.3431 0.343145C11.0307 0.655565 11.0307 1.1621 11.3431 1.47452L15.8686 6L11.3431 10.5255C11.0307 10.8379 11.0307 11.3444 11.3431 11.6569C11.6556 11.9693 12.1621 11.9693 12.4745 11.6569L17.5657 6.56569ZM1 5.2C0.558172 5.2 0.200001 5.55817 0.200001 6C0.200001 6.44183 0.558172 6.8 1 6.8L1 5.2ZM17 6L17 5.2L1 5.2L1 6L1 6.8L17 6.8L17 6Z" fill="currentColor" />
  </symbol>

  <symbol id="arrSwBtNext" width="18" height="12" viewBox="0 0 18 12" fill="none" xmlns="http://www.w3.org/2000/svg">
    <path d="M0.434315 5.43431C0.121895 5.74673 0.121895 6.25327 0.434315 6.56569L5.52548 11.6569C5.8379 11.9693 6.34443 11.9693 6.65685 11.6569C6.96927 11.3444 6.96927 10.8379 6.65685 10.5255L2.13137 6L6.65685 1.47452C6.96927 1.1621 6.96927 0.655566 6.65685 0.343146C6.34444 0.0307267 5.8379 0.0307267 5.52548 0.343146L0.434315 5.43431ZM17 6.8C17.4418 6.8 17.8 6.44183 17.8 6C17.8 5.55817 17.4418 5.2 17 5.2L17 6.8ZM1 6L1 6.8L17 6.8L17 6L17 5.2L1 5.2L1 6Z" fill="currentColor" />
  </symbol>

  <symbol id="arrBack" width="28" height="12" viewBox="0 0 28 12" fill="none" xmlns="http://www.w3.org/2000/svg">
    <path d="M0.505025 5.50503C0.231658 5.77839 0.231658 6.22161 0.505025 6.49497L4.9598 10.9497C5.23317 11.2231 5.67638 11.2231 5.94975 10.9497C6.22311 10.6764 6.22311 10.2332 5.94975 9.9598L1.98995 6L5.94975 2.0402C6.22311 1.76683 6.22311 1.32362 5.94975 1.05025C5.67638 0.776885 5.23316 0.776885 4.9598 1.05025L0.505025 5.50503ZM27 6.7C27.3866 6.7 27.7 6.3866 27.7 6C27.7 5.6134 27.3866 5.3 27 5.3L27 6.7ZM1 6L1 6.7L27 6.7L27 6L27 5.3L1 5.3L1 6Z" fill="currentColor" />
  </symbol>

  <symbol id="arrow" width="22" height="20" viewBox="0 0 22 20" fill="none" xmlns="http://www.w3.org/2000/svg">
    <path d="M2.5 10H17.5M17.5 10L11.25 4M17.5 10L11.25 16" stroke="currentColor" stroke-width="5" stroke-linecap="square" />
  </symbol>

  <symbol id="arrowSwitchingLeft" width="18" height="12" viewBox="0 0 18 12" fill="none" xmlns="http://www.w3.org/2000/svg">
    <path d="M0.434314 5.43431C0.121895 5.74673 0.121895 6.25327 0.434315 6.56569L5.52548 11.6569C5.8379 11.9693 6.34444 11.9693 6.65685 11.6569C6.96927 11.3444 6.96927 10.8379 6.65685 10.5255L2.13137 6L6.65685 1.47452C6.96927 1.1621 6.96927 0.655565 6.65685 0.343145C6.34443 0.030726 5.8379 0.030726 5.52548 0.343145L0.434314 5.43431ZM17 6.8C17.4418 6.8 17.8 6.44183 17.8 6C17.8 5.55817 17.4418 5.2 17 5.2L17 6.8ZM1 6L1 6.8L17 6.8L17 6L17 5.2L1 5.2L1 6Z" fill="currentColor" />
  </symbol>

  <symbol id="arrowSwitchingRight" width="18" height="12" viewBox="0 0 18 12" fill="none" xmlns="http://www.w3.org/2000/svg">
    <path d="M17.5657 5.43431C17.8781 5.74673 17.8781 6.25327 17.5657 6.56569L12.4745 11.6569C12.1621 11.9693 11.6556 11.9693 11.3431 11.6569C11.0307 11.3444 11.0307 10.8379 11.3431 10.5255L15.8686 6L11.3431 1.47452C11.0307 1.1621 11.0307 0.655565 11.3431 0.343145C11.6556 0.030726 12.1621 0.030726 12.4745 0.343145L17.5657 5.43431ZM1 6.8C0.558172 6.8 0.200001 6.44183 0.200001 6C0.200001 5.55817 0.558172 5.2 1 5.2L1 6.8ZM17 6L17 6.8L1 6.8L1 6L1 5.2L17 5.2L17 6Z" fill="currentColor" />
  </symbol>

  <symbol id="arrowBtnBack" width="28" height="12" viewBox="0 0 28 12" fill="none" xmlns="http://www.w3.org/2000/svg">
    <path d="M0.505025 5.50503C0.231658 5.77839 0.231658 6.22161 0.505025 6.49497L4.9598 10.9497C5.23317 11.2231 5.67638 11.2231 5.94975 10.9497C6.22311 10.6764 6.22311 10.2332 5.94975 9.9598L1.98995 6L5.94975 2.0402C6.22311 1.76683 6.22311 1.32362 5.94975 1.05025C5.67638 0.776885 5.23316 0.776885 4.9598 1.05025L0.505025 5.50503ZM27 6.7C27.3866 6.7 27.7 6.3866 27.7 6C27.7 5.6134 27.3866 5.3 27 5.3L27 6.7ZM1 6L1 6.7L27 6.7L27 6L27 5.3L1 5.3L1 6Z" fill="currentColor" />
  </symbol>

  <symbol id="arrowDownload" width="18" height="12" viewBox="0 0 18 12" fill="none" xmlns="http://www.w3.org/2000/svg">
    <path d="M17.5657 6.56569C17.8781 6.25327 17.8781 5.74673 17.5657 5.43431L12.4745 0.343146C12.1621 0.0307269 11.6556 0.0307269 11.3431 0.343146C11.0307 0.655566 11.0307 1.1621 11.3431 1.47452L15.8686 6L11.3431 10.5255C11.0307 10.8379 11.0307 11.3444 11.3431 11.6569C11.6556 11.9693 12.1621 11.9693 12.4745 11.6569L17.5657 6.56569ZM1 5.2C0.558172 5.2 0.200001 5.55817 0.200001 6C0.200001 6.44183 0.558172 6.8 1 6.8L1 5.2ZM17 6L17 5.2L1 5.2L1 6L1 6.8L17 6.8L17 6Z" fill="white" />
  </symbol>

  <symbol id="linkDownload" width="12" height="16" viewBox="0 0 12 16" fill="none" xmlns="http://www.w3.org/2000/svg">
    <path d="M1 14.6667H11M6 1.33334V11.3333M6 11.3333L8.91667 8.41668M6 11.3333L3.08333 8.41668" stroke="#141414" stroke-width="1.4" stroke-linecap="round" stroke-linejoin="round" />
  </symbol>

  <symbol id="closeDownload" width="20" height="20" viewBox="0 0 20 20" fill="none" xmlns="http://www.w3.org/2000/svg">
    <path d="M9.9987 10L5.83203 5.83334M9.9987 10L14.1654 14.1667M9.9987 10L14.1654 5.83334M9.9987 10L5.83203 14.1667" stroke="#141414" stroke-width="1.3" stroke-linecap="round" stroke-linejoin="round" />
  </symbol>

</svg>