<svg width="32" height="32" viewBox="0 0 32 32" fill="none" xmlns="http://www.w3.org/2000/svg">
<path d="M4 16C4 21.0283 4 26.2092 5.75736 27.7712C7.51472 29.3333 10.3431 29.3333 16 29.3333C21.6568 29.3333 24.4853 29.3333 26.2427 27.7712C28 26.2092 28 21.0283 28 16" stroke="#EC5F2C" stroke-width="1.6"/>
<path d="M19.5445 18.9359L27.5542 16.533C28.3482 16.2949 28.7453 16.1757 28.9971 15.8902C29.0462 15.8346 29.0906 15.775 29.1297 15.7121C29.3307 15.3887 29.3307 14.9743 29.3307 14.1453C29.3307 10.8784 29.3307 9.24501 28.4334 8.1422C28.261 7.93025 28.0673 7.73652 27.8553 7.56405C26.7525 6.66675 25.119 6.66675 21.8522 6.66675H10.1426C6.87576 6.66675 5.24233 6.66675 4.13952 7.56405C3.92757 7.73652 3.73384 7.93025 3.56137 8.1422C2.66406 9.24501 2.66406 10.8784 2.66406 14.1453C2.66406 14.9743 2.66406 15.3887 2.8651 15.7121C2.90426 15.775 2.94861 15.8346 2.99768 15.8902C3.2496 16.1757 3.6466 16.2949 4.4406 16.533L12.4503 18.9359" stroke="#EC5F2C" stroke-width="1.6"/>
<path d="M8.66406 6.66675C9.76198 6.63892 10.8764 5.93996 11.25 4.90717C11.2615 4.8754 11.2733 4.84007 11.2968 4.76937L11.331 4.66675C11.3873 4.498 11.4154 4.4136 11.4455 4.33875C11.8298 3.38291 12.7302 2.73391 13.7585 2.67163C13.839 2.66675 13.9279 2.66675 14.1059 2.66675H17.8895C18.0674 2.66675 18.1563 2.66675 18.2369 2.67163C19.2651 2.73391 20.1657 3.38291 20.5499 4.33875C20.5799 4.4136 20.6081 4.49799 20.6643 4.66675L20.6986 4.76937C20.7221 4.83965 20.7339 4.87549 20.7454 4.90717C21.119 5.93996 22.2329 6.63892 23.3307 6.66675" stroke="#EC5F2C" stroke-width="1.6"/>
<path d="M18.6641 16.6667H13.3307C12.9625 16.6667 12.6641 16.9653 12.6641 17.3334V20.2154C12.6641 20.4879 12.83 20.7331 13.0831 20.8343L14.0166 21.2078C15.2882 21.7163 16.7066 21.7163 17.9782 21.2078L18.9117 20.8343C19.1647 20.7331 19.3307 20.4879 19.3307 20.2154V17.3334C19.3307 16.9653 19.0322 16.6667 18.6641 16.6667Z" stroke="#EC5F2C" stroke-width="1.6" stroke-linecap="round"/>
</svg>
