<svg width="32" height="32" viewBox="0 0 32 32" fill="none" xmlns="http://www.w3.org/2000/svg">
<path fill-rule="evenodd" clip-rule="evenodd" d="M23.1649 7.60778L23.0949 7.55333C22.9603 6.53133 22.4711 5.46656 21.7073 4.569C20.4667 3.11067 18.4445 2 15.7379 2C13.0701 2 11.1902 3.21644 10.0811 4.72456C9.56342 5.42203 9.19368 6.21789 8.99453 7.06333C8.95836 7.22166 8.92929 7.38152 8.90742 7.54244L8.82342 7.607C7.94919 8.28444 7.30753 9.10578 7.45997 10.0477C7.60619 10.9577 8.42908 11.5114 9.19442 11.8498C9.38938 11.9359 9.5986 12.0167 9.82208 12.0924C9.70963 12.9692 9.78528 13.8599 10.044 14.7051C10.3027 15.5504 10.7386 16.3308 11.3225 16.9944C11.9064 17.658 12.6251 18.1896 13.4305 18.5538C14.236 18.9179 15.1098 19.1062 15.9937 19.1062C16.8777 19.1062 17.7515 18.9179 18.557 18.5538C19.3624 18.1896 20.0811 17.658 20.665 16.9944C21.2489 16.3308 21.6848 15.5504 21.9435 14.7051C22.2022 13.8599 22.2779 12.9692 22.1654 12.0924C22.3889 12.0173 22.5981 11.9364 22.7931 11.8498C23.5584 11.5114 24.3805 10.9577 24.5275 10.0477C24.68 9.10578 24.0383 8.28444 23.1641 7.607M10.5065 8.74411C10.4054 8.45322 10.379 7.98578 10.5104 7.40789C10.6395 6.844 10.9071 6.22567 11.3271 5.65322V7.83333C11.3271 8.03961 11.409 8.23744 11.5549 8.38331C11.7008 8.52917 11.8986 8.61111 12.1049 8.61111C12.3111 8.61111 12.509 8.52917 12.6548 8.38331C12.8007 8.23744 12.8826 8.03961 12.8826 7.83333V4.26333C13.5227 3.89933 14.2966 3.645 15.216 3.575V6.27778C15.216 6.48406 15.2979 6.68189 15.4438 6.82775C15.5896 6.97361 15.7875 7.05556 15.9937 7.05556C16.2 7.05556 16.3979 6.97361 16.5437 6.82775C16.6896 6.68189 16.7715 6.48406 16.7715 6.27778V3.62322C17.5929 3.72667 18.3857 3.99096 19.1049 4.401V7.83333C19.1049 8.03961 19.1868 8.23744 19.3327 8.38331C19.4785 8.52917 19.6764 8.61111 19.8826 8.61111C20.0889 8.61111 20.2867 8.52917 20.4326 8.38331C20.5785 8.23744 20.6604 8.03961 20.6604 7.83333V5.74733C21.5199 6.84867 21.7213 8.03711 21.4794 8.75033C21.4195 8.92686 21.425 9.11903 21.4948 9.29186C21.5647 9.46468 21.6943 9.60667 21.8601 9.69195C22.0258 9.77724 22.2167 9.80015 22.398 9.75651C22.5792 9.71288 22.7387 9.6056 22.8475 9.45422C23.0007 9.66811 22.9953 9.78167 22.9922 9.79956C22.9821 9.86178 22.8631 10.1184 22.1639 10.428C21.8605 10.5618 21.4996 10.6823 21.0944 10.7889L21.0757 10.7936C20.6363 10.9071 20.1471 11.0036 19.6236 11.0829C18.6528 11.2228 17.6744 11.3033 16.6937 11.324C16.0196 11.3411 15.3451 11.3338 14.6715 11.3022C13.8968 11.2671 13.1243 11.1934 12.3569 11.0813C11.8704 11.0108 11.3881 10.9148 10.9117 10.7936L10.8931 10.7889C10.5275 10.6976 10.1698 10.5769 9.82364 10.428C9.12442 10.1184 9.00542 9.86178 8.99531 9.79956C8.99219 9.78167 8.98675 9.66811 9.13997 9.45422C9.24894 9.60629 9.40907 9.71399 9.591 9.75757C9.77293 9.80116 9.96447 9.7777 10.1305 9.69152C10.2966 9.60533 10.426 9.46218 10.495 9.28832C10.5641 9.11445 10.5682 8.92152 10.5065 8.74489M11.3442 12.4852C11.6029 12.5355 11.8695 12.5814 12.1437 12.6229C12.9744 12.7473 13.8689 12.8267 14.7789 12.864C15.59 12.8974 16.4022 12.8974 17.2133 12.864C18.1186 12.8267 19.01 12.7473 19.8367 12.6229C20.1136 12.5824 20.3825 12.5366 20.6433 12.4852C20.6986 13.1293 20.6195 13.7779 20.4109 14.3899C20.2024 15.0018 19.869 15.5637 19.4318 16.04C18.9947 16.5163 18.4634 16.8966 17.8715 17.1567C17.2797 17.4168 16.6402 17.5512 15.9937 17.5512C15.3473 17.5512 14.7078 17.4168 14.116 17.1567C13.5241 16.8966 12.9928 16.5163 12.5557 16.04C12.1185 15.5637 11.7851 15.0018 11.5766 14.3899C11.368 13.7779 11.2889 13.1293 11.3442 12.4852Z" fill="#EC5F2C"/>
<path fill-rule="evenodd" clip-rule="evenodd" d="M19.8889 19.4922C20.4007 19.5816 20.9218 19.6859 21.4444 19.8049C25.6779 20.7716 30 22.7044 30 25.3333V30H2V25.3333C2 22.7044 6.32211 20.7716 10.5556 19.8049C11.0713 19.6874 11.59 19.5832 12.1111 19.4922V23H19.8889V19.4922ZM9 21.8255C9.50867 21.67 10.0306 21.5292 10.5556 21.4024V24.5555H21.4444V21.4032C22.2324 21.5913 23.0111 21.8166 23.7778 22.0783V28.4444H25.3333V22.6865C25.5594 22.7871 25.7767 22.8906 25.9851 22.9969C26.8694 23.4464 27.5251 23.91 27.9404 24.3533C28.3488 24.7889 28.4444 25.1101 28.4444 25.3333V28.4444H3.55556V25.3333C3.55556 25.1101 3.65122 24.7889 4.05956 24.3533C4.47489 23.91 5.13056 23.4464 6.01489 22.9969C6.45744 22.7713 6.93733 22.5597 7.44444 22.363V28.4444H9V21.8255Z" fill="#EC5F2C"/>
</svg>
