<svg width="32" height="32" viewBox="0 0 32 32" fill="none" xmlns="http://www.w3.org/2000/svg">
<path d="M27.6667 11.6849H23.2069V5.88889C23.2069 3.74533 21.4631 2 19.318 2H5.88889C3.74378 2 2 3.74533 2 5.88889V13.5376C2 15.6811 3.74378 17.4264 5.88889 17.4264H10.2102V19.6727H9.62533C7.58289 19.6727 5.92 21.334 5.92 23.378V23.6798C5.92 24.1091 6.26844 24.4576 6.69778 24.4576H16.2582V28.1676C16.2582 29.454 17.3051 30.5009 18.5916 30.5009H27.6667C28.9531 30.5009 30 29.454 30 28.1676V14.0167C30 12.7302 28.9531 11.6849 27.6667 11.6849ZM3.55556 13.5376V5.88889C3.55556 4.60244 4.60244 3.55556 5.88889 3.55556H19.318C20.6044 3.55556 21.6513 4.60244 21.6513 5.88889V11.6849H18.5931C17.3067 11.6849 16.2598 12.7318 16.2598 14.0182V15.8724H14.2173H10.988H5.88889C4.60244 15.8709 3.55556 14.8256 3.55556 13.5376ZM13.4396 17.4264V19.4813H11.7658V17.4264H13.4396ZM14.9951 17.4264H16.2598V19.7613C16.0358 19.7193 15.8102 19.6727 15.58 19.6727H14.9951V17.4264ZM7.53 22.9036C7.74778 21.9469 8.60333 21.2298 9.62689 21.2298H15.5816C15.8149 21.2298 16.042 21.2796 16.2613 21.3527V22.9036H7.53ZM28.4444 28.1691C28.4444 28.5984 28.0944 28.9469 27.6667 28.9469H18.5931C18.1653 28.9469 17.8153 28.5984 17.8153 28.1691V14.0182C17.8153 13.5889 18.1653 13.2404 18.5931 13.2404H27.6667C28.0944 13.2404 28.4444 13.5889 28.4444 14.0182V28.1691Z" fill="#EC5F2C"/>
<path d="M24.8453 25.8699H21.4184C20.9891 25.8699 20.6406 26.2183 20.6406 26.6477C20.6406 27.077 20.9891 27.4254 21.4184 27.4254H24.8453C25.2746 27.4254 25.6231 27.077 25.6231 26.6477C25.6231 26.2183 25.2746 25.8699 24.8453 25.8699Z" fill="#EC5F2C"/>
</svg>
