<svg width="32" height="32" viewBox="0 0 32 32" fill="none" xmlns="http://www.w3.org/2000/svg">
<path d="M29.7546 6.55114C29.6148 6.48107 29.459 6.44911 29.303 6.45847C29.1469 6.46783 28.9961 6.5182 28.8657 6.60447L20.4479 12.24V7.34225C20.4482 7.1732 20.4003 7.00757 20.3097 6.8648C20.2192 6.72203 20.0898 6.60804 19.9368 6.53619C19.7838 6.46434 19.6134 6.43762 19.4458 6.45916C19.2781 6.4807 19.12 6.54961 18.9901 6.65781L11.9857 12.4445H8.89236V4.1067C8.89738 3.90122 8.83104 3.70035 8.70463 3.53828C8.57822 3.37621 8.39954 3.26296 8.19903 3.21781L4.64347 2.41781C4.51229 2.38837 4.37614 2.38908 4.24526 2.41987C4.11439 2.45066 3.99221 2.51074 3.88792 2.59558C3.7812 2.68203 3.69597 2.79203 3.6389 2.91695C3.58184 3.04188 3.5545 3.17832 3.55903 3.31558V12.4445H2.67014C2.43439 12.4445 2.2083 12.5381 2.0416 12.7048C1.8749 12.8715 1.78125 13.0976 1.78125 13.3334V27.5556C1.78125 27.7913 1.8749 28.0174 2.0416 28.1841C2.2083 28.3508 2.43439 28.4445 2.67014 28.4445H29.3368C29.5726 28.4445 29.7986 28.3508 29.9653 28.1841C30.132 28.0174 30.2257 27.7913 30.2257 27.5556V7.34225C30.2269 7.17994 30.1836 7.0204 30.1006 6.88094C30.0175 6.74148 29.8979 6.62742 29.7546 6.55114ZM5.33681 4.44447L7.11458 4.83558V12.4445H5.33681V4.44447ZM28.4479 26.6667H3.55903V14.2223H12.2968C12.5045 14.2227 12.7058 14.1503 12.8657 14.0178L18.6701 9.21781V13.9111C18.6699 14.0726 18.7136 14.2311 18.7967 14.3696C18.8797 14.5081 18.9989 14.6214 19.1415 14.6972C19.2841 14.7731 19.4446 14.8086 19.6059 14.8001C19.7671 14.7916 19.923 14.7393 20.0568 14.6489L28.4479 9.01336V26.6667Z" fill="#EC5F2C"/>
<path d="M12.447 15.9912H5.33594V17.769H12.447V15.9912Z" fill="#EC5F2C"/>
<path d="M12.447 19.5466H5.33594V21.3244H12.447V19.5466Z" fill="#EC5F2C"/>
<path d="M12.447 23.1023H5.33594V24.8801H12.447V23.1023Z" fill="#EC5F2C"/>
<path d="M18.6684 16.8801H16.8906V19.5468H18.6684V16.8801Z" fill="#EC5F2C"/>
<path d="M18.6684 22.2134H16.8906V24.88H18.6684V22.2134Z" fill="#EC5F2C"/>
<path d="M22.2231 16.8801H20.4453V19.5468H22.2231V16.8801Z" fill="#EC5F2C"/>
<path d="M22.2231 22.2134H20.4453V24.88H22.2231V22.2134Z" fill="#EC5F2C"/>
<path d="M25.7778 16.8801H24V19.5468H25.7778V16.8801Z" fill="#EC5F2C"/>
<path d="M25.7778 22.2134H24V24.88H25.7778V22.2134Z" fill="#EC5F2C"/>
</svg>
