<svg width="32" height="32" viewBox="0 0 32 32" fill="none" xmlns="http://www.w3.org/2000/svg">
<path d="M29 28H4V3C4 2.73478 3.89464 2.48043 3.70711 2.29289C3.51957 2.10536 3.26522 2 3 2C2.73478 2 2.48043 2.10536 2.29289 2.29289C2.10536 2.48043 2 2.73478 2 3V29C2 29.2652 2.10536 29.5196 2.29289 29.7071C2.48043 29.8946 2.73478 30 3 30H29C29.2652 30 29.5196 29.8946 29.7071 29.7071C29.8946 29.5196 30 29.2652 30 29C30 28.7348 29.8946 28.4804 29.7071 28.2929C29.5196 28.1054 29.2652 28 29 28Z" fill="#EC5F2C"/>
<path d="M6.99866 23C7.24173 22.9997 7.47636 22.9108 7.65866 22.75L15.9987 15.37L18.3287 17.71C18.4216 17.8037 18.5322 17.8781 18.6541 17.9289C18.7759 17.9797 18.9067 18.0058 19.0387 18.0058C19.1707 18.0058 19.3014 17.9797 19.4232 17.9289C19.5451 17.8781 19.6557 17.8037 19.7487 17.71L25.9987 11.41V14C25.9987 14.2652 26.104 14.5196 26.2916 14.7071C26.4791 14.8946 26.7334 15 26.9987 15C27.2639 15 27.5182 14.8946 27.7058 14.7071C27.8933 14.5196 27.9987 14.2652 27.9987 14V9C27.9987 8.73478 27.8933 8.48043 27.7058 8.29289C27.5182 8.10536 27.2639 8 26.9987 8H21.9987C21.7334 8 21.4791 8.10536 21.2916 8.29289C21.104 8.48043 20.9987 8.73478 20.9987 9C20.9987 9.26522 21.104 9.51957 21.2916 9.70711C21.4791 9.89464 21.7334 10 21.9987 10H24.5887L18.9987 15.59L16.7087 13.29C16.5232 13.1156 16.2782 13.0185 16.0237 13.0185C15.7691 13.0185 15.5241 13.1156 15.3387 13.29L6.33866 21.29C6.13997 21.4652 6.01891 21.712 6.00203 21.9764C5.98516 22.2407 6.07386 22.501 6.24866 22.7C6.34594 22.7994 6.46288 22.8774 6.59202 22.9291C6.72116 22.9808 6.85966 23.0049 6.99866 23Z" fill="#EC5F2C"/>
</svg>
