<svg width="36" height="36" viewBox="0 0 36 36" fill="none" xmlns="http://www.w3.org/2000/svg">
<rect width="36" height="36" rx="18" fill="white"/>
<path d="M20.1442 21.566C20.1442 25.1198 17.2017 28 13.5724 28C9.94266 28 7 25.1198 7 21.566C7 18.0122 9.94266 15.1329 13.5724 15.1329C17.2017 15.1329 20.1442 18.0122 20.1442 21.566Z" fill="#04DA5F"/>
<path d="M28.7137 13.0353C28.7137 15.8156 26.411 18.0699 23.5712 18.0699C20.7307 18.0699 18.4281 15.8156 18.4281 13.0353C18.4281 10.2544 20.7307 8 23.5712 8C26.411 8 28.7137 10.2544 28.7137 13.0353Z" fill="#00A6F6"/>
<path d="M29 23.245C29 25.3307 27.273 27.021 25.1426 27.021C23.0128 27.021 21.2852 25.3307 21.2852 23.245C21.2852 21.1594 23.0128 19.4685 25.1426 19.4685C27.273 19.4685 29 21.1594 29 23.245Z" fill="#F73E50"/>
<path d="M16.9995 11.5667C16.9995 12.7639 16.0077 13.7344 14.785 13.7344C13.5622 13.7344 12.571 12.7639 12.571 11.5667C12.571 10.3685 13.5622 9.3986 14.785 9.3986C16.0077 9.3986 16.9995 10.3685 16.9995 11.5667Z" fill="#925BE3"/>
</svg>
