<svg width="36" height="36" viewBox="0 0 36 36" fill="none" xmlns="http://www.w3.org/2000/svg">
<g clip-path="url(#clip0_2994_3936)">
<mask id="mask0_2994_3936" style="mask-type:luminance" maskUnits="userSpaceOnUse" x="0" y="0" width="36" height="36">
<path d="M0 0H36V36H0V0Z" fill="white"/>
</mask>
<g mask="url(#mask0_2994_3936)">
<path d="M18 36C27.9414 36 36 27.9414 36 18C36 8.0586 27.9414 0 18 0C8.0586 0 0 8.0586 0 18C0 27.9414 8.0586 36 18 36Z" fill="#FF0002"/>
<path d="M26.7547 15.345C26.2102 14.7834 25.4362 14.4765 24.4912 14.4765C23.3167 14.4765 22.4149 14.9535 21.8956 15.8472V11.412H19.1722V23.5656H21.8956V19.2924C21.8956 18.297 22.0999 17.6589 22.4068 17.2845C22.7038 16.9101 23.1214 16.7652 23.5723 16.7652C23.9728 16.7652 24.2869 16.893 24.5083 17.1225C24.7297 17.361 24.8575 17.7273 24.8575 18.2376V23.5566H27.5809V17.7012C27.5809 16.7058 27.2911 15.8967 26.7556 15.3432L26.7547 15.345ZM14.5768 14.4765C13.4023 14.4765 12.4996 14.9535 11.9812 15.8472V11.412H9.25781V23.5656H11.9812V19.2924C11.9812 18.297 12.1846 17.6589 12.4915 17.2845C12.7885 16.9101 13.2061 16.7652 13.6579 16.7652C14.0575 16.7652 14.3725 16.893 14.5939 17.1225C14.8144 17.361 14.9422 17.7273 14.9422 18.2376V23.5566H17.6656V17.7012C17.6656 16.7058 17.3767 15.8967 16.8322 15.3351C16.2958 14.7735 15.5209 14.4765 14.5768 14.4765Z" fill="white"/>
</g>
</g>
<defs>
<clipPath id="clip0_2994_3936">
<rect width="36" height="36" fill="white"/>
</clipPath>
</defs>
</svg>
